<?xml version="1.0" encoding="UTF-8" standalone="no"?><!DOCTYPE svg PUBLIC "-//W3C//DTD SVG 1.1//EN" "http://www.w3.org/Graphics/SVG/1.1/DTD/svg11.dtd"><svg width="100%" height="100%" viewBox="0 0 1360 1619" version="1.1" xmlns="http://www.w3.org/2000/svg" xmlns:xlink="http://www.w3.org/1999/xlink" xml:space="preserve" xmlns:serif="http://www.serif.com/" style="fill-rule:evenodd;clip-rule:evenodd;stroke-linecap:round;stroke-linejoin:round;stroke-miterlimit:1.5;"><g><path d="M317,86.855c24.379,-8.988 97.026,3.455 132.71,1.342c27.482,-1.627 55.231,-6.684 81.394,-14.017c26.098,-7.316 49.568,-25.657 75.584,-29.983c26.017,-4.326 58.979,-3.853 80.515,4.027c20.39,7.46 29.772,32.62 48.703,43.25c20.048,11.257 46.392,23.695 71.582,24.292c34.147,0.81 103.933,-16.369 133.304,-19.434c14.233,-1.485 39.586,-11.036 42.918,1.045c3.332,12.081 -11.362,49.264 -22.926,71.439c-17.644,33.833 -63.917,99.884 -82.937,131.559c-11.374,18.942 -11.239,48.981 -31.182,58.491c-27.186,12.964 -97.535,15.932 -131.938,19.292c-24.71,2.413 -49.696,2.355 -74.48,0.867c-30.804,-1.849 -82.512,-7.731 -110.342,-11.961c-19.182,-2.917 -42.167,-0.499 -56.638,-13.423c-30.458,-27.203 -97.801,-114.539 -126.106,-149.792c-15.786,-19.66 -38.7,-42.223 -43.726,-61.722c-4.736,-18.37 -4.235,-48.709 13.565,-55.272Z" style="fill:#0023a6;fill-opacity:0;stroke:#000;stroke-width:83.33px;"/><path d="M464.263,452.627c-57.707,55.735 -122.543,111.524 -173.121,167.207c-47.459,52.248 -97.843,118.843 -130.345,166.885c-25.687,37.968 -48.291,84.213 -64.668,121.366c-14.381,32.626 -25.89,66.74 -33.593,101.552c-9.071,40.994 -19.909,100.355 -20.835,144.411c-0.847,40.29 4.423,81.118 15.277,119.929c11.382,40.7 27.946,89.146 53.017,124.275c25.07,35.13 58.878,66.47 97.405,86.501c49.402,25.686 132.316,52.708 199.006,67.614c65.813,14.71 133.752,19.034 201.132,21.82c75.818,3.136 175.026,5.442 253.778,-3.006c74.199,-7.96 155.351,-19.894 218.737,-47.682c61.269,-26.862 122.947,-81.187 161.575,-119.05c30.688,-30.081 45.729,-68.143 60.486,-108.502c15.399,-42.114 18.773,-118.663 12.947,-167.063c-6.921,-57.507 -32.578,-222.486 -83.271,-295.117c-37.047,-53.079 -127.987,-163.404 -178.456,-214.756c-37.68,-38.339 -164.158,-139.49 -184.057,-162.557" style="fill:#0023a6;fill-opacity:0;stroke:#000;stroke-width:83.33px;"/><path d="M315.285,158.855c24.631,31.635 48.954,63.512 73.893,94.903c26.677,33.579 74.889,85.265 86.168,106.57c4.395,8.303 -46.224,6.706 -52.613,38.387c-8.363,41.465 49.319,55.369 72.439,58.972c36.264,5.652 306.014,3.511 327.32,0.367c18.62,-2.747 72.387,7.066 77.664,-23.295c6.545,-37.661 -47.349,-56.741 -91.17,-66.437" style="fill:#0023a6;fill-opacity:0;stroke:#000;stroke-width:83.33px;"/><g transform="matrix(1,-0.000718216,0.000718216,1,2.99445,-3.251)"><g transform="matrix(896.686,0,0,896.686,1028.07,1340.86)"></g><text x="348.112px" y="1340.86px" style="font-family:'Broadway', fantasy;font-size:896.686px;">G</text></g></g></svg>