<?xml version="1.0" encoding="UTF-8" standalone="no"?><!DOCTYPE svg PUBLIC "-//W3C//DTD SVG 1.1//EN" "http://www.w3.org/Graphics/SVG/1.1/DTD/svg11.dtd"><svg width="100%" height="100%" viewBox="0 0 1738 1616" version="1.1" xmlns="http://www.w3.org/2000/svg" xmlns:xlink="http://www.w3.org/1999/xlink" xml:space="preserve" xmlns:serif="http://www.serif.com/" style="fill-rule:evenodd;clip-rule:evenodd;stroke-linecap:round;stroke-linejoin:round;stroke-miterlimit:1.5;"><g><g><g><g><path d="M650.876,372.983c-20.489,21.254 -43.69,40.194 -61.467,63.763c-18.235,24.178 -37.04,51.789 -47.945,81.299c-11.064,29.941 -14.48,65.23 -18.44,98.348c-4.507,37.7 -11.064,90.766 -8.605,127.851c2.15,32.429 12.473,64.037 23.357,94.66c12.089,34.012 30.529,80.522 49.174,109.411c16.185,25.078 39.657,44.953 62.697,63.926c24.382,20.08 54.67,39.371 83.595,56.55c33.807,20.079 91.381,51.633 119.246,63.926c14.926,6.585 34.627,6.761 47.945,9.835c10.751,2.481 32.782,-0 31.963,8.605c-0.82,8.606 -26.226,30.119 -36.881,43.027c-9.288,11.254 -18.03,22.948 -27.045,34.422" style="fill:#0023a6;fill-opacity:0;stroke:#000;stroke-width:29.17px;"/><path d="M658.252,359.46c2.869,-13.113 2.37,-27.452 8.605,-39.339c6.557,-12.498 19.67,-27.046 30.734,-35.651c10.28,-7.995 23.196,-12.176 35.651,-15.982c14.752,-4.507 44.871,-15.571 52.862,-11.064c7.99,4.508 -0.228,26.191 -4.918,38.11c-4.917,12.498 -16.596,27.455 -24.586,36.88c-6.583,7.764 -14.13,15.374 -23.358,19.67c-11.884,5.532 -36.266,11.269 -47.944,13.523c-7.243,1.397 -14.753,-0 -22.129,-0" style="fill:#0023a6;fill-opacity:0;stroke:#000;stroke-width:29.17px;"/><path d="M568.227,429.297c-6.434,-11.78 -16.214,-22.278 -19.302,-35.342c-3.247,-13.735 -2.887,-33.316 -0.178,-47.069c2.518,-12.777 9.527,-24.404 16.434,-35.445c8.181,-13.077 23.663,-41.181 32.652,-43.019c8.988,-1.837 17.003,19.922 21.28,31.996c4.484,12.66 5.475,31.61 5.624,43.966c0.122,10.178 -0.585,20.872 -4.735,30.167c-5.343,11.97 -19.988,32.29 -27.327,41.65c-4.551,5.805 -11.137,9.675 -16.705,14.512" style="fill:#0023a6;fill-opacity:0;stroke:#000;stroke-width:29.17px;"/><path d="M579.207,463.639c7.599,-11.065 12.54,-24.536 22.795,-33.196c10.783,-9.107 28.411,-17.64 41.903,-21.442c12.535,-3.532 26.074,-2.537 39.045,-1.369c15.363,1.383 47.431,2.485 53.134,9.671c5.703,7.186 -10.08,24.174 -18.915,33.447c-9.265,9.724 -25.719,19.178 -36.672,24.897c-9.023,4.711 -18.882,8.916 -29.048,9.418c-13.092,0.646 -37.839,-3.228 -49.506,-5.541c-7.235,-1.434 -13.665,-5.559 -20.497,-8.338" style="fill:#0023a6;fill-opacity:0;stroke:#000;stroke-width:29.17px;"/><path d="M525.845,599.626c4.788,-12.54 6.429,-26.794 14.365,-37.62c8.344,-11.384 23.476,-23.817 35.697,-30.68c11.356,-6.376 24.751,-8.587 37.633,-10.497c15.259,-2.262 46.689,-8.719 53.92,-3.073c7.231,5.647 -4.124,25.865 -10.535,36.954c-6.723,11.627 -20.498,24.679 -29.802,32.81c-7.665,6.697 -16.261,13.099 -26.025,15.973c-12.575,3.702 -37.539,5.746 -49.424,6.236c-7.369,0.305 -14.587,-2.195 -21.881,-3.293" style="fill:#0023a6;fill-opacity:0;stroke:#000;stroke-width:29.17px;"/><path d="M515.335,760.263c0.063,-13.423 -3.422,-27.341 0.191,-40.269c3.798,-13.593 13.58,-30.56 22.601,-41.288c8.381,-9.968 20.138,-16.757 31.522,-23.082c13.483,-7.492 40.624,-24.608 49.38,-21.871c8.757,2.737 5.253,25.659 3.159,38.296c-2.196,13.25 -10.49,30.318 -16.333,41.205c-4.814,8.969 -10.604,17.988 -18.73,24.118c-10.464,7.894 -33.108,18.602 -44.057,23.247c-6.791,2.881 -14.427,3.085 -21.64,4.627" style="fill:#0023a6;fill-opacity:0;stroke:#000;stroke-width:29.17px;"/><path d="M566.353,900.831c-4.073,-12.79 -11.675,-24.958 -12.22,-38.37c-0.572,-14.102 3.51,-33.257 8.788,-46.242c4.904,-12.065 13.999,-22.144 22.881,-31.668c10.521,-11.28 31.071,-35.923 40.245,-36.015c9.174,-0.093 12.9,22.794 14.799,35.461c1.992,13.282 -0.643,32.075 -2.849,44.233c-1.818,10.015 -4.549,20.379 -10.392,28.714c-7.525,10.733 -25.77,27.894 -34.757,35.686c-5.573,4.832 -12.775,7.377 -19.163,11.065" style="fill:#0023a6;fill-opacity:0;stroke:#000;stroke-width:29.17px;"/><path d="M663.243,1018.13c-8.122,-10.687 -19.36,-19.607 -24.364,-32.062c-5.262,-13.096 -7.832,-32.512 -7.207,-46.515c0.581,-13.01 5.775,-25.553 10.955,-37.501c6.136,-14.153 17.247,-44.255 25.86,-47.414c8.613,-3.159 19.788,17.158 25.82,28.458c6.325,11.848 10.136,30.438 12.128,42.633c1.642,10.045 2.54,20.725 -0.175,30.535c-3.496,12.634 -14.941,34.914 -20.799,45.266c-3.633,6.419 -9.567,11.229 -14.35,16.844" style="fill:#0023a6;fill-opacity:0;stroke:#000;stroke-width:29.17px;"/><path d="M790.965,1083.35c-10.566,-8.279 -23.698,-14.058 -31.697,-24.838c-8.409,-11.335 -15.817,-29.465 -18.762,-43.169c-2.737,-12.732 -0.892,-26.182 1.09,-39.054c2.347,-15.245 5.464,-47.18 12.995,-52.42c7.531,-5.24 23.492,11.581 32.191,20.983c9.122,9.858 17.521,26.874 22.54,38.165c4.134,9.302 7.71,19.405 7.571,29.583c-0.178,13.107 -5.601,37.561 -8.644,49.059c-1.887,7.131 -6.408,13.288 -9.612,19.932" style="fill:#0023a6;fill-opacity:0;stroke:#000;stroke-width:29.17px;"/><path d="M916.213,1133.26c-11.642,-6.681 -25.467,-10.519 -34.928,-20.042c-9.947,-10.012 -19.875,-26.894 -24.754,-40.034c-4.532,-12.209 -4.633,-25.785 -4.516,-38.808c0.139,-15.424 -1.352,-47.477 5.351,-53.741c6.703,-6.265 24.909,8.096 34.865,16.154c10.44,8.449 21.191,24.087 27.775,34.543c5.425,8.613 10.411,18.1 11.732,28.192c1.701,12.998 -0.163,37.976 -1.527,49.792c-0.845,7.327 -4.437,14.069 -6.656,21.103" style="fill:#0023a6;fill-opacity:0;stroke:#000;stroke-width:29.17px;"/><path d="M862.851,1142.48c-12.564,-4.727 -24.324,-12.946 -37.69,-14.181c-14.054,-1.298 -33.394,1.791 -46.634,6.394c-12.301,4.275 -22.835,12.839 -32.804,21.219c-11.808,9.926 -37.476,29.179 -38.041,38.336c-0.565,9.157 22.1,14.057 34.652,16.606c13.162,2.674 32.066,1.011 44.321,-0.566c10.095,-1.3 20.586,-3.493 29.211,-8.899c11.107,-6.962 29.185,-24.299 37.429,-32.872c5.113,-5.317 8.025,-12.378 12.038,-18.568" style="fill:#0023a6;fill-opacity:0;stroke:#000;stroke-width:29.17px;"/><path d="M739.114,1085.48c-10.443,-8.434 -19.026,-19.932 -31.328,-25.303c-12.934,-5.647 -32.266,-8.789 -46.281,-8.579c-13.021,0.195 -25.713,5.016 -37.809,9.84c-14.328,5.715 -44.746,15.93 -48.158,24.446c-3.413,8.516 16.565,20.287 27.681,26.651c11.656,6.672 30.125,11.032 42.255,13.384c9.993,1.938 20.642,3.152 30.528,0.729c12.731,-3.121 35.34,-13.902 45.861,-19.451c6.524,-3.441 11.507,-9.23 17.261,-13.846" style="fill:#0023a6;fill-opacity:0;stroke:#000;stroke-width:29.17px;"/><path d="M615.212,986.38c-8.529,-10.365 -14.619,-23.356 -25.586,-31.096c-11.532,-8.137 -29.833,-15.111 -43.603,-17.729c-12.794,-2.432 -26.197,-0.268 -39.017,2.02c-15.186,2.71 -47.037,6.587 -52.096,14.241c-5.059,7.653 12.137,23.209 21.743,31.682c10.073,8.884 27.284,16.876 38.692,21.624c9.397,3.911 19.583,7.246 29.755,6.865c13.099,-0.491 37.416,-6.495 48.839,-9.811c7.084,-2.056 13.131,-6.722 19.697,-10.084" style="fill:#0023a6;fill-opacity:0;stroke:#000;stroke-width:29.17px;"/><path d="M540.548,866.33c-3.65,-12.917 -4.013,-27.26 -10.951,-38.751c-7.295,-12.082 -21.258,-25.816 -32.819,-33.742c-10.741,-7.363 -23.885,-10.761 -36.546,-13.812c-14.996,-3.614 -45.725,-12.85 -53.431,-7.87c-7.705,4.979 1.8,26.129 7.197,37.745c5.659,12.181 18.214,26.41 26.756,35.338c7.037,7.355 15.028,14.498 24.497,18.232c12.194,4.808 36.876,9.071 48.669,10.62c7.314,0.96 14.726,-0.886 22.089,-1.329" style="fill:#0023a6;fill-opacity:0;stroke:#000;stroke-width:29.17px;"/><path d="M504.614,723.605c0.672,-13.407 4.915,-27.113 2.016,-40.219c-3.048,-13.781 -11.886,-31.259 -20.305,-42.465c-7.822,-10.412 -19.19,-17.835 -30.21,-24.774c-13.053,-8.22 -39.214,-26.798 -48.108,-24.544c-8.893,2.253 -6.65,25.333 -5.252,38.065c1.467,13.35 8.813,30.847 14.051,42.038c4.315,9.219 9.602,18.542 17.38,25.108c10.016,8.456 32.039,20.388 42.717,25.627c6.622,3.249 14.236,3.87 21.354,5.805" style="fill:#0023a6;fill-opacity:0;stroke:#000;stroke-width:29.17px;"/><path d="M520.174,558.963c4.714,-12.569 12.92,-24.338 14.14,-37.706c1.283,-14.055 -1.827,-33.391 -6.443,-46.626c-4.289,-12.297 -12.864,-22.822 -21.255,-32.782c-9.939,-11.796 -29.219,-37.445 -38.377,-38c-9.157,-0.555 -14.033,22.115 -16.569,34.67c-2.659,13.165 -0.976,32.067 0.615,44.321c1.31,10.094 3.514,20.582 8.929,29.201c6.974,11.099 24.331,29.159 32.913,37.394c5.322,5.107 12.387,8.012 18.58,12.018" style="fill:#0023a6;fill-opacity:0;stroke:#000;stroke-width:29.17px;"/></g><g><path d="M1231.62,372.983c20.489,21.254 43.69,40.194 61.468,63.763c18.235,24.178 37.039,51.789 47.944,81.299c11.064,29.941 14.48,65.23 18.44,98.348c4.508,37.7 11.064,90.766 8.606,127.851c-2.15,32.429 -12.474,64.037 -23.358,94.66c-12.089,34.012 -30.529,80.522 -49.174,109.411c-16.184,25.078 -39.657,44.953 -62.696,63.926c-24.382,20.08 -54.671,39.371 -83.596,56.55c-33.807,20.079 -91.381,51.633 -119.246,63.926c-14.926,6.585 -34.626,6.761 -47.944,9.835c-10.752,2.481 -32.783,-0 -31.963,8.605c0.819,8.606 26.226,30.119 36.88,43.027c9.289,11.254 18.03,22.948 27.046,34.422" style="fill:#0023a6;fill-opacity:0;stroke:#000;stroke-width:29.17px;"/><path d="M1224.24,359.46c-2.868,-13.113 -2.369,-27.452 -8.605,-39.339c-6.557,-12.498 -19.67,-27.046 -30.734,-35.651c-10.279,-7.995 -23.196,-12.176 -35.651,-15.982c-14.752,-4.507 -44.871,-15.571 -52.861,-11.064c-7.991,4.508 0.227,26.191 4.917,38.11c4.917,12.498 16.596,27.455 24.587,36.88c6.582,7.764 14.129,15.374 23.357,19.67c11.884,5.532 36.266,11.269 47.945,13.523c7.242,1.397 14.752,-0 22.128,-0" style="fill:#0023a6;fill-opacity:0;stroke:#000;stroke-width:29.17px;"/><path d="M1314.27,429.297c6.434,-11.78 16.214,-22.278 19.301,-35.342c3.247,-13.735 2.887,-33.316 0.178,-47.069c-2.517,-12.777 -9.527,-24.404 -16.434,-35.445c-8.181,-13.077 -23.663,-41.181 -32.651,-43.019c-8.989,-1.837 -17.004,19.922 -21.28,31.996c-4.484,12.66 -5.476,31.61 -5.624,43.966c-0.123,10.178 0.585,20.872 4.734,30.167c5.344,11.97 19.988,32.29 27.327,41.65c4.551,5.805 11.137,9.675 16.705,14.512" style="fill:#0023a6;fill-opacity:0;stroke:#000;stroke-width:29.17px;"/><path d="M1303.29,463.639c-7.598,-11.065 -12.54,-24.536 -22.795,-33.196c-10.783,-9.107 -28.411,-17.64 -41.902,-21.442c-12.535,-3.532 -26.075,-2.537 -39.046,-1.369c-15.363,1.383 -47.431,2.485 -53.134,9.671c-5.703,7.186 10.081,24.174 18.916,33.447c9.264,9.724 25.718,19.178 36.672,24.897c9.023,4.711 18.881,8.916 29.047,9.418c13.093,0.646 37.839,-3.228 49.506,-5.541c7.235,-1.434 13.665,-5.559 20.497,-8.338" style="fill:#0023a6;fill-opacity:0;stroke:#000;stroke-width:29.17px;"/><path d="M1356.65,599.626c-4.788,-12.54 -6.429,-26.794 -14.365,-37.62c-8.343,-11.384 -23.475,-23.817 -35.697,-30.68c-11.355,-6.376 -24.75,-8.587 -37.633,-10.497c-15.258,-2.262 -46.689,-8.719 -53.919,-3.073c-7.231,5.647 4.123,25.865 10.534,36.954c6.723,11.627 20.498,24.679 29.803,32.81c7.664,6.697 16.26,13.099 26.025,15.973c12.574,3.702 37.539,5.746 49.423,6.236c7.37,0.305 14.588,-2.195 21.882,-3.293" style="fill:#0023a6;fill-opacity:0;stroke:#000;stroke-width:29.17px;"/><path d="M1367.16,760.263c-0.064,-13.423 3.422,-27.341 -0.191,-40.269c-3.799,-13.593 -13.581,-30.56 -22.601,-41.288c-8.381,-9.968 -20.139,-16.757 -31.522,-23.082c-13.484,-7.492 -40.624,-24.608 -49.381,-21.871c-8.756,2.737 -5.253,25.659 -3.159,38.296c2.196,13.25 10.49,30.318 16.334,41.205c4.814,8.969 10.603,17.988 18.729,24.118c10.464,7.894 33.108,18.602 44.058,23.247c6.79,2.881 14.426,3.085 21.639,4.627" style="fill:#0023a6;fill-opacity:0;stroke:#000;stroke-width:29.17px;"/><path d="M1316.14,900.831c4.073,-12.79 11.676,-24.958 12.22,-38.37c0.572,-14.102 -3.509,-33.257 -8.787,-46.242c-4.904,-12.065 -13.999,-22.144 -22.882,-31.668c-10.521,-11.28 -31.071,-35.923 -40.245,-36.015c-9.174,-0.093 -12.899,22.794 -14.799,35.461c-1.991,13.282 0.643,32.075 2.85,44.233c1.818,10.015 4.548,20.379 10.391,28.714c7.525,10.733 25.771,27.894 34.757,35.686c5.573,4.832 12.775,7.377 19.163,11.065" style="fill:#0023a6;fill-opacity:0;stroke:#000;stroke-width:29.17px;"/><path d="M1219.25,1018.13c8.121,-10.687 19.359,-19.607 24.364,-32.062c5.262,-13.096 7.831,-32.512 7.206,-46.515c-0.58,-13.01 -5.775,-25.553 -10.955,-37.501c-6.136,-14.153 -17.246,-44.255 -25.86,-47.414c-8.613,-3.159 -19.788,17.158 -25.82,28.458c-6.324,11.848 -10.136,30.438 -12.128,42.633c-1.641,10.045 -2.539,20.725 0.175,30.535c3.496,12.634 14.941,34.914 20.799,45.266c3.633,6.419 9.567,11.229 14.351,16.844" style="fill:#0023a6;fill-opacity:0;stroke:#000;stroke-width:29.17px;"/><path d="M1091.53,1083.35c10.565,-8.279 23.698,-14.058 31.696,-24.838c8.41,-11.335 15.817,-29.465 18.763,-43.169c2.736,-12.732 0.891,-26.182 -1.091,-39.054c-2.347,-15.245 -5.464,-47.18 -12.995,-52.42c-7.531,-5.24 -23.492,11.581 -32.191,20.983c-9.122,9.858 -17.521,26.874 -22.54,38.165c-4.134,9.302 -7.71,19.405 -7.571,29.583c0.179,13.107 5.602,37.561 8.645,49.059c1.886,7.131 6.407,13.288 9.611,19.932" style="fill:#0023a6;fill-opacity:0;stroke:#000;stroke-width:29.17px;"/><path d="M966.281,1133.26c11.643,-6.681 25.468,-10.519 34.928,-20.042c9.947,-10.012 19.876,-26.894 24.754,-40.034c4.532,-12.209 4.634,-25.785 4.516,-38.808c-0.139,-15.424 1.352,-47.477 -5.351,-53.741c-6.702,-6.265 -24.908,8.096 -34.865,16.154c-10.44,8.449 -21.191,24.087 -27.775,34.543c-5.424,8.613 -10.411,18.1 -11.732,28.192c-1.701,12.998 0.163,37.976 1.527,49.792c0.846,7.327 4.438,14.069 6.657,21.103" style="fill:#0023a6;fill-opacity:0;stroke:#000;stroke-width:29.17px;"/><path d="M1019.64,1142.48c12.563,-4.727 24.323,-12.946 37.69,-14.181c14.054,-1.298 33.393,1.791 46.633,6.394c12.301,4.275 22.836,12.839 32.804,21.219c11.808,9.926 37.477,29.179 38.041,38.336c0.565,9.157 -22.099,14.057 -34.652,16.606c-13.162,2.674 -32.065,1.011 -44.321,-0.566c-10.095,-1.3 -20.586,-3.493 -29.211,-8.899c-11.106,-6.962 -29.184,-24.299 -37.429,-32.872c-5.112,-5.317 -8.025,-12.378 -12.038,-18.568" style="fill:#0023a6;fill-opacity:0;stroke:#000;stroke-width:29.17px;"/><path d="M1143.38,1085.48c10.442,-8.434 19.025,-19.932 31.327,-25.303c12.935,-5.647 32.266,-8.789 46.281,-8.579c13.022,0.195 25.713,5.016 37.81,9.84c14.328,5.715 44.745,15.93 48.158,24.446c3.412,8.516 -16.566,20.287 -27.682,26.651c-11.656,6.672 -30.125,11.032 -42.255,13.384c-9.993,1.938 -20.642,3.152 -30.528,0.729c-12.731,-3.121 -35.34,-13.902 -45.86,-19.451c-6.524,-3.441 -11.508,-9.23 -17.262,-13.846" style="fill:#0023a6;fill-opacity:0;stroke:#000;stroke-width:29.17px;"/><path d="M1267.28,986.38c8.529,-10.365 14.619,-23.356 25.587,-31.096c11.531,-8.137 29.833,-15.111 43.603,-17.729c12.793,-2.432 26.196,-0.268 39.017,2.02c15.185,2.71 47.037,6.587 52.096,14.241c5.058,7.653 -12.138,23.209 -21.744,31.682c-10.072,8.884 -27.284,16.876 -38.692,21.624c-9.397,3.911 -19.583,7.246 -29.754,6.865c-13.099,-0.491 -37.417,-6.495 -48.84,-9.811c-7.083,-2.056 -13.131,-6.722 -19.697,-10.084" style="fill:#0023a6;fill-opacity:0;stroke:#000;stroke-width:29.17px;"/><path d="M1341.95,866.33c3.651,-12.917 4.014,-27.26 10.952,-38.751c7.295,-12.082 21.258,-25.816 32.818,-33.742c10.742,-7.363 23.886,-10.761 36.546,-13.812c14.997,-3.614 45.725,-12.85 53.431,-7.87c7.706,4.979 -1.8,26.129 -7.196,37.745c-5.659,12.181 -18.215,26.41 -26.757,35.338c-7.037,7.355 -15.027,14.498 -24.496,18.232c-12.195,4.808 -36.877,9.071 -48.67,10.62c-7.313,0.96 -14.726,-0.886 -22.088,-1.329" style="fill:#0023a6;fill-opacity:0;stroke:#000;stroke-width:29.17px;"/><path d="M1377.88,723.605c-0.672,-13.407 -4.915,-27.113 -2.016,-40.219c3.048,-13.781 11.886,-31.259 20.305,-42.465c7.822,-10.412 19.19,-17.835 30.21,-24.774c13.053,-8.22 39.215,-26.798 48.108,-24.544c8.893,2.253 6.651,25.333 5.252,38.065c-1.466,13.35 -8.812,30.847 -14.051,42.038c-4.315,9.219 -9.601,18.542 -17.379,25.108c-10.016,8.456 -32.04,20.388 -42.718,25.627c-6.622,3.249 -14.235,3.87 -21.353,5.805" style="fill:#0023a6;fill-opacity:0;stroke:#000;stroke-width:29.17px;"/><path d="M1362.32,558.963c-4.713,-12.569 -12.92,-24.338 -14.14,-37.706c-1.283,-14.055 1.827,-33.391 6.443,-46.626c4.289,-12.297 12.865,-22.822 21.255,-32.782c9.939,-11.796 29.219,-37.445 38.377,-38c9.158,-0.555 14.033,22.115 16.569,34.67c2.659,13.165 0.976,32.067 -0.614,44.321c-1.311,10.094 -3.515,20.582 -8.93,29.201c-6.974,11.099 -24.33,29.159 -32.912,37.394c-5.323,5.107 -12.387,8.012 -18.581,12.018" style="fill:#0023a6;fill-opacity:0;stroke:#000;stroke-width:29.17px;"/></g></g><g transform="matrix(655.65,0,0,655.65,1167.59,919.639)"></g><text x="714.907px" y="919.639px" style="font-family:'Broadway', fantasy;font-size:655.65px;">T</text></g><path d="M181.043,43.519c-10.204,-0 1280.98,-0 1280.98,-0c-0,-0 31.556,-0 63.93,30.298c43.586,40.793 43.023,56.985 43.023,56.985l-0,1233.03" style="fill:#0023a6;fill-opacity:0;stroke:#000;stroke-width:83.33px;"/><path d="M1481.06,1572.82l-1079.63,-0c-0,-0 -25.897,0.706 -72.01,-45.407c-29.452,-29.452 -30.413,-60.366 -30.413,-60.366l-0.122,-1210.68" style="fill:#0023a6;fill-opacity:0;stroke:#000;stroke-width:83.33px;"/><path d="M297.831,256.366l-254.475,-0c0,-0 -5.532,-102.383 14.753,-137.857c20.284,-35.475 68.749,-74.99 109.411,-74.99c46.51,-0 93.43,39.515 115.558,74.99c22.129,35.474 14.753,137.857 14.753,137.857Z" style="fill:#0023a6;fill-opacity:0;stroke:#000;stroke-width:83.33px;"/><path d="M1469.76,1572.82c6.881,-0 109.478,0.085 116.478,-0c44.756,-0.545 62.417,0.001 99.886,-60.067c13.241,-21.226 9.835,-148.921 9.835,-148.921l-126.991,-0" style="fill:#0023a6;fill-opacity:0;stroke:#000;stroke-width:83.33px;"/><path d="M426.912,1572.82c34.421,-0.41 44.645,-3.688 87.283,-38.111c29.601,-23.897 30.734,-55.32 30.734,-55.32l-0,-115.558l1024.04,-0" style="fill:#0023a6;fill-opacity:0;stroke:#000;stroke-width:83.33px;"/></g></svg>