<?xml version="1.0" encoding="UTF-8" standalone="no"?><!DOCTYPE svg PUBLIC "-//W3C//DTD SVG 1.1//EN" "http://www.w3.org/Graphics/SVG/1.1/DTD/svg11.dtd"><svg width="100%" height="100%" viewBox="0 0 691 647" version="1.1" xmlns="http://www.w3.org/2000/svg" xmlns:xlink="http://www.w3.org/1999/xlink" xml:space="preserve" xmlns:serif="http://www.serif.com/" style="fill-rule:evenodd;clip-rule:evenodd;stroke-linecap:round;stroke-linejoin:round;stroke-miterlimit:1.5;"><g><path d="M343.438,97.674c-16.831,-62.933 -123.637,-95.128 -171.19,-94.278c-41.476,0.74 -86.008,24.81 -114.126,49.62c-28.119,24.81 -51.995,61.576 -54.583,99.24c-2.885,41.994 0.827,98.413 9.924,133.975c7.526,29.416 30.525,52.518 44.659,79.392c36.245,68.919 285.316,277.873 285.316,277.873c47.552,-44.658 28.531,-439.139 -0,-545.822Z" style="stroke:#000;stroke-width:4.17px;"/><path d="M347.187,97.674c16.831,-62.933 123.637,-94.295 171.19,-94.278c41.482,0.014 86.008,24.81 114.126,49.62c28.119,24.81 51.995,61.576 54.583,99.24c2.885,41.994 -0.827,98.413 -9.924,133.975c-7.526,29.416 -31.118,52.215 -44.659,79.392c-37.678,75.624 -280.458,282.383 -285.316,277.873c0,-0 -28.531,-439.139 0,-545.822Z" style="stroke:#000;stroke-width:4.17px;"/></g></svg>