<?xml version="1.0" encoding="UTF-8" standalone="no"?><!DOCTYPE svg PUBLIC "-//W3C//DTD SVG 1.1//EN" "http://www.w3.org/Graphics/SVG/1.1/DTD/svg11.dtd"><svg width="100%" height="100%" viewBox="0 0 1616 1613" version="1.1" xmlns="http://www.w3.org/2000/svg" xmlns:xlink="http://www.w3.org/1999/xlink" xml:space="preserve" xmlns:serif="http://www.serif.com/" style="fill-rule:evenodd;clip-rule:evenodd;stroke-linecap:round;stroke-linejoin:round;stroke-miterlimit:1.5;"><g><path d="M981.608,56.557l-7.255,227.915l244.884,7.331" style="fill:#0023a6;fill-opacity:0;stroke:#000;stroke-width:83.33px;"/><path d="M1216.26,766.795l2.414,-476.125l-232.482,-247.667l-940.068,-0.865l-8.053,1527.72l1179.71,-0.31l1.39,-509.235" style="fill:#0023a6;fill-opacity:0;stroke:#000;stroke-width:83.33px;"/><path d="M204.19,1109.63l647.057,4.629" style="fill:none;stroke:#000;stroke-width:83.33px;"/><path d="M214.398,979.013l839.391,-0.157" style="fill:none;stroke:#000;stroke-width:83.33px;"/><path d="M217.854,840.45l835.429,0.391" style="fill:none;stroke:#000;stroke-width:83.33px;"/><path d="M215.662,1513.23c29.879,-48.777 62.223,-111.038 89.637,-146.331c20.328,-26.169 54.014,-56.745 74.85,-65.422c15.976,-6.653 41.856,-1.145 50.168,13.361c8.312,14.505 5.254,49.75 -0.298,73.671c-5.768,24.849 -33.419,62.247 -34.308,75.423c-0.656,9.711 20.755,8.851 28.972,3.635c15.228,-9.666 43.677,-55.3 62.393,-61.63c17.436,-5.897 41.733,10.472 49.898,23.652c8.165,13.181 -18.861,51.052 -0.908,55.43c22.229,5.421 89.52,-15.271 134.28,-22.906" style="fill:#0023a6;fill-opacity:0;stroke:#000;stroke-width:41.67px;"/><path d="M201.881,1244.8l612.153,1.546" style="fill:none;stroke:#000;stroke-width:83.33px;"/><g><path d="M262.068,243.628l11.766,413.247" style="fill:none;stroke:#000;stroke-width:83.33px;"/><path d="M263.395,237.445c0,0 209.778,-29.488 252.825,3.186c43.047,32.674 51.898,166.367 10.703,200.454c-41.196,34.086 -253.113,18.022 -253.113,18.022" style="fill:#0023a6;fill-opacity:0;stroke:#000;stroke-width:83.33px;"/></g><path d="M1018.18,547.206l-333.052,0.235" style="fill:none;stroke:#000;stroke-width:83.33px;"/><path d="M371.414,691.607l647.407,3.208" style="fill:none;stroke:#000;stroke-width:83.33px;"/><g><path d="M833.489,1292.76c-32.922,50.605 -85.329,157.39 -68.359,167.718c16.971,10.328 119.925,-61.762 170.182,-105.749c69.031,-60.419 169.716,-164.999 244.009,-256.769c99.771,-123.241 287.396,-386.513 354.618,-482.68c20.274,-29.002 44.095,-65.775 48.716,-94.32c4.248,-26.245 -3.428,-70.375 -20.989,-76.949c-17.561,-6.574 -60.283,18.353 -84.377,37.504c-35.877,28.516 -91.519,85.253 -130.885,133.592c-62.371,76.588 -161.513,217.828 -243.341,325.937c-85.485,112.942 -213.252,265.144 -269.574,351.716Z" style="fill:#0023a6;fill-opacity:0;stroke:#000;stroke-width:62.5px;"/><path d="M1141.9,889.099l126.298,93.867" style="fill:none;stroke:#000;stroke-width:62.5px;"/><path d="M1438.33,521.011l106.527,78.317" style="fill:none;stroke:#000;stroke-width:62.5px;"/><path d="M1528.9,620.666l15.341,79.618l-97.957,166.535l-134.611,169.013" style="fill:#0023a6;fill-opacity:0;stroke:#000;stroke-width:62.5px;"/><path d="M935.312,1354.73c-33.941,-20.656 -67.882,-41.312 -101.823,-61.969" style="fill:#0023a6;fill-opacity:0;stroke:#000;stroke-width:62.5px;"/></g></g></svg>