<?xml version="1.0" encoding="UTF-8" standalone="no"?><!DOCTYPE svg PUBLIC "-//W3C//DTD SVG 1.1//EN" "http://www.w3.org/Graphics/SVG/1.1/DTD/svg11.dtd"><svg width="100%" height="100%" viewBox="0 0 1925 2600" version="1.1" xmlns="http://www.w3.org/2000/svg" xmlns:xlink="http://www.w3.org/1999/xlink" xml:space="preserve" xmlns:serif="http://www.serif.com/" style="fill-rule:evenodd;clip-rule:evenodd;stroke-linecap:square;stroke-linejoin:round;stroke-miterlimit:1.5;"><g id="scientist-br"><path d="M766.667,454.167l-108.334,-0" style="fill:none;stroke:#000;stroke-width:42.37px;"/><path d="M1020.83,454.167l-41.666,-0" style="fill:none;stroke:#000;stroke-width:42.37px;"/><path d="M962.5,533.333l-175,0" style="fill:none;stroke:#000;stroke-width:42.37px;"/><path d="M941.667,570.833l-229.167,0" style="fill:none;stroke:#000;stroke-width:42.37px;"/><path d="M862.5,604.167l-150,-0" style="fill:none;stroke:#000;stroke-width:42.37px;"/><path d="M825,762.5l-204.167,0" style="fill:none;stroke:#000;stroke-width:42.37px;"/><path d="M345.833,1525l-50,0" style="fill:none;stroke:#000;stroke-width:42.37px;"/><path d="M595.833,1562.5l-225,0" style="fill:none;stroke:#000;stroke-width:42.37px;"/><path d="M558.333,1795.83l-150,0" style="fill:none;stroke:#000;stroke-width:42.37px;"/><path d="M462.5,762.5l-95.833,0" style="fill:none;stroke:#000;stroke-width:42.37px;"/><path d="M362.5,800l-37.5,0" style="fill:none;stroke:#000;stroke-width:42.37px;"/><path d="M291.667,837.5l-12.5,0" style="fill:none;stroke:#000;stroke-width:42.37px;"/><path d="M254.167,875l-0,0" style="fill:none;stroke:#000;stroke-width:42.37px;"/><path d="M900,722.917l-37.5,-0" style="fill:none;stroke:#000;stroke-width:42.37px;"/><path d="M1506.25,1366.67l-41.667,-0" style="fill:none;stroke:#000;stroke-width:42.37px;"/><path d="M1654.17,1325l-110.413,0" style="fill:none;stroke:#000;stroke-width:42.37px;"/><path d="M1616.67,1208.33l-193.746,0" style="fill:none;stroke:#000;stroke-width:42.37px;"/><path d="M1506.25,1287.5l-137.5,0" style="fill:none;stroke:#000;stroke-width:42.37px;"/><path d="M1060.41,1143.75l-37.5,0" style="fill:none;stroke:#000;stroke-width:42.37px;"/><path d="M1685.8,2016.67l-300,-0" style="fill:none;stroke:#000;stroke-width:42.37px;"/><path d="M1348.3,1975l-37.5,0" style="fill:none;stroke:#000;stroke-width:42.37px;"/><path d="M1314.97,1937.5l-4.167,0" style="fill:none;stroke:#000;stroke-width:42.37px;"/><path d="M1360.8,1991.67l-4.167,-0" style="fill:none;stroke:#000;stroke-width:42.37px;"/><path d="M1100,1181.25l-4.167,0" style="fill:none;stroke:#000;stroke-width:42.37px;"/><path d="M1389.59,1328.12l0,0" style="fill:none;stroke:#000;stroke-width:42.37px;"/><path d="M520.833,875l-37.5,0" style="fill:none;stroke:#000;stroke-width:42.37px;"/><path d="M562.5,912.5l-0,0" style="fill:none;stroke:#000;stroke-width:42.37px;"/><path d="M975,766.667l-25,-0" style="fill:none;stroke:#000;stroke-width:42.37px;"/><path d="M1095.83,879.167l0,-0" style="fill:none;stroke:#000;stroke-width:42.37px;"/><path d="M1129.17,916.667l-0,-0" style="fill:none;stroke:#000;stroke-width:42.37px;"/><path d="M1054.17,837.5l-0,0" style="fill:none;stroke:#000;stroke-width:42.37px;"/><path d="M1054.17,837.5l-0,0" style="fill:none;stroke:#000;stroke-width:42.37px;"/><path d="M1016.67,800l-0,0" style="fill:none;stroke:#000;stroke-width:42.37px;"/><path d="M1016.67,800l-0,0" style="fill:none;stroke:#000;stroke-width:42.37px;"/><path d="M862.5,337.5l-41.667,0" style="fill:none;stroke:#000;stroke-width:42.37px;"/><path d="M604.167,337.5l-316.667,0" style="fill:none;stroke:#000;stroke-width:42.37px;"/><path d="M466.667,295.833l-179.167,0" style="fill:none;stroke:#000;stroke-width:42.37px;"/><path d="M466.667,254.167l-179.167,-0" style="fill:none;stroke:#000;stroke-width:42.37px;"/><path d="M441.667,225l-112.5,0" style="fill:none;stroke:#000;stroke-width:42.37px;"/><path d="M408.333,187.5l-41.666,0" style="fill:none;stroke:#000;stroke-width:42.37px;"/><path d="M366.667,379.167l-79.167,-0" style="fill:none;stroke:#000;stroke-width:42.37px;"/><path d="M366.667,420.833l-79.167,0" style="fill:none;stroke:#000;stroke-width:42.37px;"/><path d="M366.667,462.5l-37.5,0" style="fill:none;stroke:#000;stroke-width:42.37px;"/><path d="M404.167,495.833l-37.5,0" style="fill:none;stroke:#000;stroke-width:42.37px;"/><path d="M862.5,70.833l-341.667,0" style="fill:none;stroke:#000;stroke-width:42.37px;"/><path d="M487.5,108.333l-8.333,0" style="fill:none;stroke:#000;stroke-width:42.37px;"/><path d="M900,108.333l-33.333,0" style="fill:none;stroke:#000;stroke-width:42.37px;"/><path d="M941.667,145.833l-33.334,0" style="fill:none;stroke:#000;stroke-width:42.37px;"/><path d="M975,187.5l-33.333,-0" style="fill:none;stroke:#000;stroke-width:42.37px;"/><path d="M975,191.667l0,33.333" style="fill:none;stroke:#000;stroke-width:42.37px;"/><path d="M479.167,266.667l-0,112.5" style="fill:none;stroke:#000;stroke-width:42.37px;"/><path d="M975,466.667l0,141.666" style="fill:none;stroke:#000;stroke-width:42.37px;"/><path d="M941.667,541.667l-0,104.166" style="fill:none;stroke:#000;stroke-width:42.37px;"/><path d="M900,683.333l0,75" style="fill:none;stroke:#000;stroke-width:42.37px;"/><path d="M775,766.667l0,20.833" style="fill:none;stroke:#000;stroke-width:42.37px;"/><path d="M941.667,762.5l-0,112.5" style="fill:none;stroke:#000;stroke-width:42.37px;"/><path d="M445.833,495.833l0,112.5" style="fill:none;stroke:#000;stroke-width:42.37px;"/><path d="M479.167,612.5l-0,29.167" style="fill:none;stroke:#000;stroke-width:42.37px;"/><path d="M520.833,645.833l0,79.167" style="fill:none;stroke:#000;stroke-width:42.37px;"/><path d="M558.333,685.417l0,39.583" style="fill:none;stroke:#000;stroke-width:42.37px;"/><path d="M595.833,722.917l0,110.416" style="fill:none;stroke:#000;stroke-width:42.37px;"/><path d="M636.941,833.336l0.801,79.164" style="fill:none;stroke:#000;stroke-width:42.37px;"/><path d="M673.587,800l0,-0" style="fill:none;stroke:#000;stroke-width:42.37px;"/><path d="M520.032,954.169l0.38,37.498" style="fill:none;stroke:#000;stroke-width:42.37px;"/><path d="M557.532,991.667l0.38,37.497" style="fill:none;stroke:#000;stroke-width:42.37px;"/><path d="M590.866,1050l0.126,12.497" style="fill:none;stroke:#000;stroke-width:42.37px;"/><path d="M632.532,1075l0.337,33.331" style="fill:none;stroke:#000;stroke-width:42.37px;"/><path d="M786.699,1145.84l0.337,33.331" style="fill:none;stroke:#000;stroke-width:42.37px;"/><path d="M865.866,1045.84l0.168,16.664" style="fill:none;stroke:#000;stroke-width:42.37px;"/><path d="M903.366,987.503l0.379,37.497" style="fill:none;stroke:#000;stroke-width:42.37px;"/><path d="M1170.62,1011.46l0.126,12.498" style="fill:none;stroke:#000;stroke-width:42.37px;"/><path d="M1149.75,957.292l0.169,16.664" style="fill:none;stroke:#000;stroke-width:42.37px;"/><path d="M1464.59,1242.71l0.38,37.498" style="fill:none;stroke:#000;stroke-width:42.37px;"/><path d="M1463.03,1367.71l1.94,191.664" style="fill:none;stroke:#000;stroke-width:42.37px;"/><path d="M1385,1480.21l0.801,79.166" style="fill:none;stroke:#000;stroke-width:42.37px;"/><path d="M1422.9,1519.79l0.4,39.583" style="fill:none;stroke:#000;stroke-width:42.37px;"/><path d="M1578.11,1211.46l3.521,347.916" style="fill:none;stroke:#000;stroke-width:42.37px;"/><path d="M1654.17,1328.12l1.497,147.917" style="fill:none;stroke:#000;stroke-width:42.37px;"/><path d="M1620.83,1480.21l0.802,79.166" style="fill:none;stroke:#000;stroke-width:42.37px;"/><path d="M1645.83,1567.71l0.296,29.166" style="fill:none;stroke:#000;stroke-width:42.37px;"/><path d="M1729.17,1638.54l0.674,66.667" style="fill:none;stroke:#000;stroke-width:42.37px;"/><path d="M1770.83,1709.37l1.94,191.667" style="fill:none;stroke:#000;stroke-width:42.37px;"/><path d="M1733.33,1937.5l0.38,37.5" style="fill:none;stroke:#000;stroke-width:42.37px;"/><path d="M1695.83,1975l0.169,16.667" style="fill:none;stroke:#000;stroke-width:42.37px;"/><path d="M1270.83,1709.37l1.94,191.667" style="fill:none;stroke:#000;stroke-width:42.37px;"/><path d="M1308.33,1613.54l0.928,91.667" style="fill:none;stroke:#000;stroke-width:42.37px;"/><path d="M1341.67,1596.87l0.379,37.5" style="fill:none;stroke:#000;stroke-width:42.37px;"/><path d="M1391.67,1551.04l0.379,37.5" style="fill:none;stroke:#000;stroke-width:42.37px;"/><path d="M1379.17,1594.79l0.021,2.083" style="fill:none;stroke:#000;stroke-width:42.37px;"/><path d="M1695.83,1621.87l0.127,12.5" style="fill:none;stroke:#000;stroke-width:42.37px;"/><path d="M1679.17,1590.62l0.126,12.5" style="fill:none;stroke:#000;stroke-width:42.37px;"/><path d="M903.555,879.169l0.338,33.331" style="fill:none;stroke:#000;stroke-width:42.37px;"/><path d="M824.389,779.169l1.391,137.498" style="fill:none;stroke:#000;stroke-width:42.37px;"/><path d="M786.889,916.667l1.539,152.083" style="fill:none;stroke:#000;stroke-width:42.37px;"/><path d="M674.389,950l0.358,35.417" style="fill:none;stroke:#000;stroke-width:42.37px;"/><path d="M710.371,800l3.099,306.25" style="fill:none;stroke:#000;stroke-width:42.37px;"/><path d="M945.222,950.003l0.042,4.164" style="fill:none;stroke:#000;stroke-width:42.37px;"/><path d="M828.366,1100l0.084,8.33" style="fill:none;stroke:#000;stroke-width:42.37px;"/><path d="M707.532,1179.17l0.042,4.164" style="fill:none;stroke:#000;stroke-width:42.37px;"/><path d="M674.199,1145.83l-0.042,-4.169" style="fill:none;stroke:#000;stroke-width:42.37px;"/><path d="M483.333,722.917l0,152.083" style="fill:none;stroke:#000;stroke-width:42.37px;"/><path d="M216.667,910.417l-0,43.75" style="fill:none;stroke:#000;stroke-width:42.37px;"/><path d="M137.5,1022.92l0,39.583" style="fill:none;stroke:#000;stroke-width:42.37px;"/><path d="M100,1102.08l0,39.584" style="fill:none;stroke:#000;stroke-width:42.37px;"/><path d="M62.5,1185.42l0,106.25" style="fill:none;stroke:#000;stroke-width:42.37px;"/><path d="M100,1306.25l0,22.917" style="fill:none;stroke:#000;stroke-width:42.37px;"/><path d="M137.5,1331.25l0,39.583" style="fill:none;stroke:#000;stroke-width:42.37px;"/><path d="M216.667,1410.42l-0,31.25" style="fill:none;stroke:#000;stroke-width:42.37px;"/><path d="M254.167,1447.92l-0,35.416" style="fill:none;stroke:#000;stroke-width:42.37px;"/><path d="M366.667,1489.58l-0,35.417" style="fill:none;stroke:#000;stroke-width:42.37px;"/><path d="M404.167,1447.92l-0,35.416" style="fill:none;stroke:#000;stroke-width:42.37px;"/><path d="M441.667,1372.92l-0,75" style="fill:none;stroke:#000;stroke-width:42.37px;"/><path d="M175,1372.92l0,6.25" style="fill:none;stroke:#000;stroke-width:42.37px;"/><path d="M1191.67,1322.92l-0,10.416" style="fill:none;stroke:#000;stroke-width:42.37px;"/><path d="M1150,1268.75l0,14.583" style="fill:none;stroke:#000;stroke-width:42.37px;"/><path d="M1112.5,1218.75l0,10.417" style="fill:none;stroke:#000;stroke-width:42.37px;"/><path d="M1270.83,1410.42l0,6.25" style="fill:none;stroke:#000;stroke-width:42.37px;"/><path d="M1341.67,1453.12l-0,5.208" style="fill:none;stroke:#000;stroke-width:42.37px;"/><path d="M1229.17,1372.92l-0,6.25" style="fill:none;stroke:#000;stroke-width:42.37px;"/><path d="M1266.67,1164.58l-0,10.417" style="fill:none;stroke:#000;stroke-width:42.37px;"/><path d="M1225,1110.42l0,14.583" style="fill:none;stroke:#000;stroke-width:42.37px;"/><path d="M1187.5,1060.42l0,10.416" style="fill:none;stroke:#000;stroke-width:42.37px;"/><path d="M1345.83,1260.42l0,18.75" style="fill:none;stroke:#000;stroke-width:42.37px;"/><path d="M1304.17,1453.12l-0,5.208" style="fill:none;stroke:#000;stroke-width:42.37px;"/><path d="M1362.5,1364.58l0,6.25" style="fill:none;stroke:#000;stroke-width:42.37px;"/><path d="M1333.33,1410.42l0,6.25" style="fill:none;stroke:#000;stroke-width:42.37px;"/><path d="M1304.17,1214.58l-0,6.25" style="fill:none;stroke:#000;stroke-width:42.37px;"/><path d="M179.167,993.75l-0,2.083" style="fill:none;stroke:#000;stroke-width:42.37px;"/><path d="M445.833,145.833l0,0" style="fill:none;stroke:#000;stroke-width:42.37px;"/><path d="M945.833,425l-25,0" style="fill:none;stroke:#000;stroke-width:42.37px;"/><path d="M429.167,2070.83l-0,466.667l70.833,0l0,-37.5l41.667,0l-0,37.5l266.666,0l0,-37.5l41.667,0l0,37.5l187.5,0l0,-75l-79.167,0l0,-37.5l-37.5,0l0,-354.167l-187.5,0l0,395.834l-79.166,-0l-0,-41.667l-37.5,0l-0,-354.167l-187.5,0Z"/><path d="M429.167,2070.83l187.5,0l-0,354.167l37.5,0l-0,41.667l79.166,-0l0,-395.834l187.5,0l0,354.167l37.5,0l0,37.5l79.167,0l0,75l-187.5,0l0,-37.5l-41.667,0l0,37.5l-266.666,0l-0,-37.5l-41.667,0l0,37.5l-70.833,0l-0,-466.667Zm346.536,386.798l102.761,-0l-0,-344.428l-102.761,-0l-0,344.428Zm116.666,9.738l0,27.762l23.595,-0l-0,-27.762l-23.595,0Zm-420.833,-9.738l102.761,-0l0,-344.428l-102.761,-0l0,344.428Zm112.5,9.738l0,27.762l27.761,-0l0,-27.762l-27.761,0Z"/><path d="M1020.83,1100l0,458.333l-79.166,0l-0,200" style="fill:#00b;fill-opacity:0;stroke:#000;stroke-width:42.37px;stroke-linejoin:miter;"/><path d="M1054.17,1445.83l-0,606.25" style="fill:none;stroke:#000;stroke-width:42.37px;stroke-linejoin:miter;"/><path d="M1331.25,1731.25l379.167,-0l-0,150l-38.313,-0l0,37.5l-38.036,-0l-0,37.5l-227.773,-0l0,-37.5l-36.985,-0l-0,-37.5l-38.06,-0l-0,-150Z"/><path d="M1331.25,1731.25l379.167,-0l-0,150l-38.313,-0l0,37.5l-38.036,-0l-0,37.5l-227.773,-0l0,-37.5l-36.985,-0l-0,-37.5l-38.06,-0l-0,-150Zm260.725,182.631c2.262,-19.772 18.134,-35.408 38.015,-37.307c2.181,-19.87 18.102,-35.606 38.057,-37.502l0,-65.453l-294.428,0l0,65.478c19.875,2.008 35.694,17.752 37.818,37.592c19.38,2.345 34.729,17.774 36.951,37.192l143.587,-0Z"/><rect x="691.667" y="358.333" width="37.5" height="37.5"/><path d="M729.167,358.333l-0,37.5l-37.5,0l-0,-37.5l37.5,0Zm-23.62,18.75l4.87,4.87l4.869,-4.87l-4.869,-4.869l-4.87,4.869Z"/><rect x="808.333" y="1275" width="37.5" height="37.5"/><path d="M845.833,1275l0,37.5l-37.5,0l0,-37.5l37.5,0Zm-23.619,18.75l4.869,4.869l4.87,-4.869l-4.87,-4.869l-4.869,4.869Z"/><rect x="808.333" y="1420.83" width="37.5" height="37.5"/><path d="M845.833,1420.83l0,37.5l-37.5,0l0,-37.5l37.5,0Zm-23.619,18.75l4.869,4.87l4.87,-4.87l-4.87,-4.869l-4.869,4.869Z"/><rect x="808.333" y="1566.67" width="37.5" height="37.5"/><path d="M845.833,1566.67l0,37.5l-37.5,-0l0,-37.5l37.5,-0Zm-23.619,18.75l4.869,4.869l4.87,-4.869l-4.87,-4.87l-4.869,4.87Z"/><rect x="808.333" y="1712.5" width="37.5" height="37.5"/><path d="M845.833,1712.5l0,37.5l-37.5,0l0,-37.5l37.5,0Zm-23.619,18.75l4.869,4.869l4.87,-4.869l-4.87,-4.869l-4.869,4.869Z"/><rect x="808.333" y="1858.33" width="37.5" height="37.5"/><path d="M845.833,1858.33l0,37.5l-37.5,0l0,-37.5l37.5,0Zm-23.619,18.75l4.869,4.87l4.87,-4.87l-4.87,-4.869l-4.869,4.869Z"/><rect x="270.833" y="2041.67" width="804.167" height="37.5" style="fill:#00b;"/><rect x="270.833" y="2041.67" width="804.167" height="37.5"/><path d="M750,2041.67l0,-1279.17" style="fill:#00b;fill-opacity:0;stroke:#000;stroke-width:42.37px;"/><rect x="962.5" y="358.333" width="37.5" height="37.5"/><path d="M1000,358.333l0,37.5l-37.5,0l0,-37.5l37.5,0Zm-23.619,18.75l4.869,4.87l4.869,-4.87l-4.869,-4.869l-4.869,4.869Z"/><path d="M1054.17,1791.67l-83.334,-0" style="fill:none;stroke:#000;stroke-width:42.37px;stroke-linejoin:miter;"/><path d="M291.667,2060.42l-0,-577.084" style="fill:none;stroke:#000;stroke-width:42.37px;stroke-linejoin:miter;"/><path d="M370.833,1756.25l0,-172.917" style="fill:none;stroke:#000;stroke-width:42.37px;stroke-linejoin:miter;"/><path d="M595.833,1756.25l0,-172.917" style="fill:none;stroke:#000;stroke-width:42.37px;stroke-linejoin:miter;"/><path d="M558.333,1539.58l0,-52.083" style="fill:none;stroke:#000;stroke-width:42.37px;stroke-linejoin:miter;"/><path d="M366.667,1302.08l-0,-6.25" style="fill:none;stroke:#000;stroke-width:42.37px;stroke-linejoin:miter;"/><path d="M329.167,1256.25l-0,-110.417" style="fill:none;stroke:#000;stroke-width:42.37px;stroke-linejoin:miter;"/><path d="M287.5,1222.92l0,-43.75" style="fill:none;stroke:#000;stroke-width:42.37px;stroke-linejoin:miter;"/><path d="M370.833,1143.75l0,-52.083" style="fill:none;stroke:#000;stroke-width:42.37px;stroke-linejoin:miter;"/><path d="M404.167,1068.75l-0,-10.417" style="fill:none;stroke:#000;stroke-width:42.37px;stroke-linejoin:miter;"/><path d="M404.167,1339.58l-0,-2.083" style="fill:none;stroke:#000;stroke-width:42.37px;stroke-linejoin:miter;"/><path d="M483.333,1410.42l0,-2.084" style="fill:none;stroke:#000;stroke-width:42.37px;stroke-linejoin:miter;"/><path d="M520.833,1452.08l0,-6.25" style="fill:none;stroke:#000;stroke-width:42.37px;stroke-linejoin:miter;"/><path d="M637.5,425l0,-158.333l150,-0l0,158.333" style="fill:#00b;fill-opacity:0;stroke:#000;stroke-width:42.37px;stroke-linejoin:bevel;"/><path d="M904.167,425l-0,-158.333l150,-0l-0,158.333" style="fill:#00b;fill-opacity:0;stroke:#000;stroke-width:42.37px;stroke-linejoin:bevel;"/></g></svg>