<?xml version="1.0" encoding="UTF-8" standalone="no"?><!DOCTYPE svg PUBLIC "-//W3C//DTD SVG 1.1//EN" "http://www.w3.org/Graphics/SVG/1.1/DTD/svg11.dtd"><svg width="100%" height="100%" viewBox="0 0 1925 2600" version="1.1" xmlns="http://www.w3.org/2000/svg" xmlns:xlink="http://www.w3.org/1999/xlink" xml:space="preserve" xmlns:serif="http://www.serif.com/" style="fill-rule:evenodd;clip-rule:evenodd;stroke-linecap:square;stroke-linejoin:round;stroke-miterlimit:1.5;"><g id="scientist-bl"><path d="M725,454.167l-108.333,-0" style="fill:none;stroke:#000;stroke-width:42.37px;"/><path d="M979.167,454.167l-41.667,-0" style="fill:none;stroke:#000;stroke-width:42.37px;"/><path d="M920.833,533.333l-175,0" style="fill:none;stroke:#000;stroke-width:42.37px;"/><path d="M900,570.833l-229.167,0" style="fill:none;stroke:#000;stroke-width:42.37px;"/><path d="M820.833,604.167l-150,-0" style="fill:none;stroke:#000;stroke-width:42.37px;"/><path d="M783.333,762.5l-204.166,0" style="fill:none;stroke:#000;stroke-width:42.37px;"/><path d="M304.167,1525l-50,0" style="fill:none;stroke:#000;stroke-width:42.37px;"/><path d="M554.167,1562.5l-225,0" style="fill:none;stroke:#000;stroke-width:42.37px;"/><path d="M516.667,1795.83l-150,0" style="fill:none;stroke:#000;stroke-width:42.37px;"/><path d="M420.833,762.5l-95.833,0" style="fill:none;stroke:#000;stroke-width:42.37px;"/><path d="M320.833,800l-37.5,0" style="fill:none;stroke:#000;stroke-width:42.37px;"/><path d="M250,837.5l-12.5,0" style="fill:none;stroke:#000;stroke-width:42.37px;"/><path d="M212.5,875l0,0" style="fill:none;stroke:#000;stroke-width:42.37px;"/><path d="M858.333,722.917l-37.5,-0" style="fill:none;stroke:#000;stroke-width:42.37px;"/><path d="M1506.25,379.167l-41.667,-0" style="fill:none;stroke:#000;stroke-width:42.37px;"/><path d="M1654.17,337.5l-110.413,0" style="fill:none;stroke:#000;stroke-width:42.37px;"/><path d="M1616.67,220.833l-193.746,0" style="fill:none;stroke:#000;stroke-width:42.37px;"/><path d="M1506.25,300l-122.921,0" style="fill:none;stroke:#000;stroke-width:42.37px;"/><path d="M1685.8,1029.17l-300,-0" style="fill:none;stroke:#000;stroke-width:42.37px;"/><path d="M1348.3,987.5l-37.5,0" style="fill:none;stroke:#000;stroke-width:42.37px;"/><path d="M1314.97,950l-4.167,0" style="fill:none;stroke:#000;stroke-width:42.37px;"/><path d="M1360.8,1004.17l-4.167,-0" style="fill:none;stroke:#000;stroke-width:42.37px;"/><path d="M479.167,875l-37.5,0" style="fill:none;stroke:#000;stroke-width:42.37px;"/><path d="M520.833,912.5l0,0" style="fill:none;stroke:#000;stroke-width:42.37px;"/><path d="M933.333,766.667l-25,-0" style="fill:none;stroke:#000;stroke-width:42.37px;"/><path d="M820.833,337.5l-41.666,0" style="fill:none;stroke:#000;stroke-width:42.37px;"/><path d="M562.5,337.5l-316.667,0" style="fill:none;stroke:#000;stroke-width:42.37px;"/><path d="M425,295.833l-179.167,0" style="fill:none;stroke:#000;stroke-width:42.37px;"/><path d="M425,254.167l-179.167,-0" style="fill:none;stroke:#000;stroke-width:42.37px;"/><path d="M400,225l-112.5,0" style="fill:none;stroke:#000;stroke-width:42.37px;"/><path d="M366.667,187.5l-41.667,0" style="fill:none;stroke:#000;stroke-width:42.37px;"/><path d="M325,379.167l-79.167,-0" style="fill:none;stroke:#000;stroke-width:42.37px;"/><path d="M325,420.833l-79.167,0" style="fill:none;stroke:#000;stroke-width:42.37px;"/><path d="M325,462.5l-37.5,0" style="fill:none;stroke:#000;stroke-width:42.37px;"/><path d="M362.5,495.833l-37.5,0" style="fill:none;stroke:#000;stroke-width:42.37px;"/><path d="M820.833,70.833l-341.666,0" style="fill:none;stroke:#000;stroke-width:42.37px;"/><path d="M445.833,108.333l-8.333,0" style="fill:none;stroke:#000;stroke-width:42.37px;"/><path d="M858.333,108.333l-33.333,0" style="fill:none;stroke:#000;stroke-width:42.37px;"/><path d="M900,145.833l-33.333,0" style="fill:none;stroke:#000;stroke-width:42.37px;"/><path d="M933.333,187.5l-33.333,-0" style="fill:none;stroke:#000;stroke-width:42.37px;"/><path d="M933.333,191.667l0,33.333" style="fill:none;stroke:#000;stroke-width:42.37px;"/><path d="M437.5,266.667l-0,112.5" style="fill:none;stroke:#000;stroke-width:42.37px;"/><path d="M933.333,466.667l0,141.666" style="fill:none;stroke:#000;stroke-width:42.37px;"/><path d="M900,541.667l0,104.166" style="fill:none;stroke:#000;stroke-width:42.37px;"/><path d="M858.333,683.333l0,75" style="fill:none;stroke:#000;stroke-width:42.37px;"/><path d="M733.333,766.667l0,20.833" style="fill:none;stroke:#000;stroke-width:42.37px;"/><path d="M900,762.5l0,112.5" style="fill:none;stroke:#000;stroke-width:42.37px;"/><path d="M404.167,495.833l-0,112.5" style="fill:none;stroke:#000;stroke-width:42.37px;"/><path d="M437.5,612.5l0,29.167" style="fill:none;stroke:#000;stroke-width:42.37px;"/><path d="M479.167,645.833l-0,79.167" style="fill:none;stroke:#000;stroke-width:42.37px;"/><path d="M516.667,685.417l-0,39.583" style="fill:none;stroke:#000;stroke-width:42.37px;"/><path d="M554.167,722.917l-0,110.416" style="fill:none;stroke:#000;stroke-width:42.37px;"/><path d="M595.275,833.336l0.801,79.164" style="fill:none;stroke:#000;stroke-width:42.37px;"/><path d="M631.921,800l-0,-0" style="fill:none;stroke:#000;stroke-width:42.37px;"/><path d="M478.366,954.169l0.379,37.498" style="fill:none;stroke:#000;stroke-width:42.37px;"/><path d="M515.866,991.667l0.379,37.497" style="fill:none;stroke:#000;stroke-width:42.37px;"/><path d="M549.199,1050l0.126,12.497" style="fill:none;stroke:#000;stroke-width:42.37px;"/><path d="M590.866,1075l0.337,33.331" style="fill:none;stroke:#000;stroke-width:42.37px;"/><path d="M745.032,1145.84l0.337,33.331" style="fill:none;stroke:#000;stroke-width:42.37px;"/><path d="M824.199,1045.84l0.168,16.664" style="fill:none;stroke:#000;stroke-width:42.37px;"/><path d="M861.699,987.503l0.379,37.497" style="fill:none;stroke:#000;stroke-width:42.37px;"/><path d="M1464.59,255.208l0.38,37.498" style="fill:none;stroke:#000;stroke-width:42.37px;"/><path d="M1463.03,380.208l1.94,191.664" style="fill:none;stroke:#000;stroke-width:42.37px;"/><path d="M1385,492.706l0.801,79.166" style="fill:none;stroke:#000;stroke-width:42.37px;"/><path d="M1422.9,532.289l0.4,39.583" style="fill:none;stroke:#000;stroke-width:42.37px;"/><path d="M1578.11,223.956l3.521,347.916" style="fill:none;stroke:#000;stroke-width:42.37px;"/><path d="M1654.17,340.622l1.497,147.917" style="fill:none;stroke:#000;stroke-width:42.37px;"/><path d="M1620.83,492.706l0.802,79.166" style="fill:none;stroke:#000;stroke-width:42.37px;"/><path d="M1645.83,580.206l0.296,29.166" style="fill:none;stroke:#000;stroke-width:42.37px;"/><path d="M1729.17,651.039l0.674,66.667" style="fill:none;stroke:#000;stroke-width:42.37px;"/><path d="M1770.83,721.872l1.94,191.667" style="fill:none;stroke:#000;stroke-width:42.37px;"/><path d="M1733.33,950l0.38,37.5" style="fill:none;stroke:#000;stroke-width:42.37px;"/><path d="M1695.83,987.5l0.169,16.667" style="fill:none;stroke:#000;stroke-width:42.37px;"/><path d="M1270.83,721.872l1.94,191.667" style="fill:none;stroke:#000;stroke-width:42.37px;"/><path d="M1308.33,626.039l0.928,91.667" style="fill:none;stroke:#000;stroke-width:42.37px;"/><path d="M1341.67,609.372l0.379,37.5" style="fill:none;stroke:#000;stroke-width:42.37px;"/><path d="M1391.67,563.539l0.379,37.5" style="fill:none;stroke:#000;stroke-width:42.37px;"/><path d="M1379.17,607.289l0.021,2.083" style="fill:none;stroke:#000;stroke-width:42.37px;"/><path d="M1695.83,634.372l0.127,12.5" style="fill:none;stroke:#000;stroke-width:42.37px;"/><path d="M1679.17,603.122l0.126,12.5" style="fill:none;stroke:#000;stroke-width:42.37px;"/><path d="M861.889,879.169l0.337,33.331" style="fill:none;stroke:#000;stroke-width:42.37px;"/><path d="M782.722,779.169l1.391,137.498" style="fill:none;stroke:#000;stroke-width:42.37px;"/><path d="M745.222,916.667l1.539,152.083" style="fill:none;stroke:#000;stroke-width:42.37px;"/><path d="M632.722,950l0.358,35.417" style="fill:none;stroke:#000;stroke-width:42.37px;"/><path d="M668.704,800l3.099,306.25" style="fill:none;stroke:#000;stroke-width:42.37px;"/><path d="M903.555,950.003l0.042,4.164" style="fill:none;stroke:#000;stroke-width:42.37px;"/><path d="M786.699,1100l0.084,8.33" style="fill:none;stroke:#000;stroke-width:42.37px;"/><path d="M665.866,1179.17l0.042,4.164" style="fill:none;stroke:#000;stroke-width:42.37px;"/><path d="M632.532,1145.83l-0.042,-4.169" style="fill:none;stroke:#000;stroke-width:42.37px;"/><path d="M441.667,722.917l-0,152.083" style="fill:none;stroke:#000;stroke-width:42.37px;"/><path d="M175,910.417l0,43.75" style="fill:none;stroke:#000;stroke-width:42.37px;"/><path d="M95.833,1022.92l0,39.583" style="fill:none;stroke:#000;stroke-width:42.37px;"/><path d="M58.333,1102.08l0,39.584" style="fill:none;stroke:#000;stroke-width:42.37px;"/><path d="M20.833,1185.42l0,106.25" style="fill:none;stroke:#000;stroke-width:42.37px;"/><path d="M58.333,1306.25l0,22.917" style="fill:none;stroke:#000;stroke-width:42.37px;"/><path d="M95.833,1331.25l0,39.583" style="fill:none;stroke:#000;stroke-width:42.37px;"/><path d="M175,1410.42l0,31.25" style="fill:none;stroke:#000;stroke-width:42.37px;"/><path d="M212.5,1447.92l0,35.416" style="fill:none;stroke:#000;stroke-width:42.37px;"/><path d="M325,1489.58l0,35.417" style="fill:none;stroke:#000;stroke-width:42.37px;"/><path d="M362.5,1447.92l0,35.416" style="fill:none;stroke:#000;stroke-width:42.37px;"/><path d="M400,1372.92l0,75" style="fill:none;stroke:#000;stroke-width:42.37px;"/><path d="M133.333,1372.92l0,6.25" style="fill:none;stroke:#000;stroke-width:42.37px;"/><path d="M1337.5,506.25l0,6.25" style="fill:none;stroke:#000;stroke-width:42.37px;"/><path d="M1287.5,577.083l0,6.25" style="fill:none;stroke:#000;stroke-width:42.37px;"/><path d="M1320.83,543.75l0,6.25" style="fill:none;stroke:#000;stroke-width:42.37px;"/><path d="M1254.17,622.917l-0,6.25" style="fill:none;stroke:#000;stroke-width:42.37px;"/><path d="M1225,664.583l0,6.25" style="fill:none;stroke:#000;stroke-width:42.37px;"/><path d="M1016.67,1056.25l-0,6.25" style="fill:none;stroke:#000;stroke-width:42.37px;"/><path d="M966.667,739.583l-0,6.25" style="fill:none;stroke:#000;stroke-width:42.37px;"/><path d="M995.833,702.083l0,6.25" style="fill:none;stroke:#000;stroke-width:42.37px;"/><path d="M1025,664.583l0,6.25" style="fill:none;stroke:#000;stroke-width:42.37px;"/><path d="M1050,620.833l0,6.25" style="fill:none;stroke:#000;stroke-width:42.37px;"/><path d="M1075,579.167l0,6.25" style="fill:none;stroke:#000;stroke-width:42.37px;"/><path d="M1100,552.081l0,6.25" style="fill:none;stroke:#000;stroke-width:42.37px;"/><path d="M1120.83,520.833l0,6.25" style="fill:none;stroke:#000;stroke-width:42.37px;"/><path d="M1283.33,362.5l0,10.417" style="fill:none;stroke:#000;stroke-width:42.37px;"/><path d="M1254.17,400l-0,6.25" style="fill:none;stroke:#000;stroke-width:42.37px;"/><path d="M1225,425l0,6.25" style="fill:none;stroke:#000;stroke-width:42.37px;"/><path d="M1191.67,458.333l-0,6.25" style="fill:none;stroke:#000;stroke-width:42.37px;"/><path d="M1154.17,487.5l-0,6.25" style="fill:none;stroke:#000;stroke-width:42.37px;"/><path d="M1353.12,329.167l-2.083,-0" style="fill:none;stroke:#000;stroke-width:42.37px;"/><path d="M1316.67,329.167l-0,43.75" style="fill:none;stroke:#000;stroke-width:42.37px;"/><path d="M1054.17,1022.92l-0,6.25" style="fill:none;stroke:#000;stroke-width:42.37px;"/><path d="M1087.5,981.25l0,6.25" style="fill:none;stroke:#000;stroke-width:42.37px;"/><path d="M1120.83,914.583l0,6.25" style="fill:none;stroke:#000;stroke-width:42.37px;"/><path d="M1100,947.917l0,6.25" style="fill:none;stroke:#000;stroke-width:42.37px;"/><path d="M1154.17,818.75l-0,6.25" style="fill:none;stroke:#000;stroke-width:42.37px;"/><path d="M1183.33,756.25l0,22.917" style="fill:none;stroke:#000;stroke-width:42.37px;"/><path d="M1208.33,710.417l0,6.25" style="fill:none;stroke:#000;stroke-width:42.37px;"/><path d="M1133.33,856.25l0,18.75" style="fill:none;stroke:#000;stroke-width:42.37px;"/><path d="M1350,465.625l0,5.208" style="fill:none;stroke:#000;stroke-width:42.37px;"/><path d="M1333.33,410.417l0,18.75" style="fill:none;stroke:#000;stroke-width:42.37px;"/><path d="M137.5,993.75l0,2.083" style="fill:none;stroke:#000;stroke-width:42.37px;"/><path d="M404.167,145.833l-0,0" style="fill:none;stroke:#000;stroke-width:42.37px;"/><path d="M904.167,425l-25,0" style="fill:none;stroke:#000;stroke-width:42.37px;"/><path d="M387.5,2070.83l0,466.667l70.833,0l0,-37.5l41.667,0l0,37.5l266.667,0l-0,-37.5l41.666,0l0,37.5l187.5,0l0,-75l-79.166,0l-0,-37.5l-37.5,0l-0,-354.167l-187.5,0l-0,395.834l-79.167,-0l0,-41.667l-37.5,0l0,-354.167l-187.5,0Z"/><path d="M387.5,2070.83l187.5,0l0,354.167l37.5,0l0,41.667l79.167,-0l-0,-395.834l187.5,0l-0,354.167l37.5,0l-0,37.5l79.166,0l0,75l-187.5,0l0,-37.5l-41.666,0l-0,37.5l-266.667,0l0,-37.5l-41.667,0l0,37.5l-70.833,0l0,-466.667Zm463.203,396.536l-0,27.762l23.594,-0l0,-27.762l-23.594,0Zm-116.667,-9.738l102.761,-0l0,-344.428l-102.761,-0l0,344.428Zm-191.667,9.738l0,27.762l27.762,-0l-0,-27.762l-27.762,0Zm-112.499,-9.738l102.761,-0l-0,-344.428l-102.762,-0l0.001,344.428Z"/><path d="M979.167,1100l-0,458.333l-79.167,0l0,200" style="fill:#00b;fill-opacity:0;stroke:#000;stroke-width:42.37px;stroke-linejoin:miter;"/><path d="M1012.5,1445.83l0,606.25" style="fill:none;stroke:#000;stroke-width:42.37px;stroke-linejoin:miter;"/><path d="M1331.25,743.75l379.167,0l-0,150l-38.313,0l0,37.5l-38.036,0l-0,37.5l-227.773,0l0,-37.5l-36.985,0l-0,-37.5l-38.06,0l-0,-150Z"/><path d="M1331.25,743.75l379.167,0l-0,150l-38.313,0l0,37.5l-38.036,0l-0,37.5l-227.773,0l0,-37.5l-36.985,0l-0,-37.5l-38.06,0l-0,-150Zm260.725,182.631c2.262,-19.772 18.134,-35.408 38.015,-37.307c2.181,-19.87 18.102,-35.606 38.057,-37.502l0,-65.453l-294.428,0l0,65.478c19.875,2.008 35.694,17.752 37.818,37.592c19.38,2.345 34.729,17.774 36.951,37.192l143.587,-0Z"/><rect x="650" y="358.333" width="37.5" height="37.5"/><path d="M687.5,358.333l0,37.5l-37.5,0l0,-37.5l37.5,0Zm-23.619,18.75l4.869,4.87l4.869,-4.87l-4.869,-4.869l-4.869,4.869Z"/><rect x="764.44" y="1275" width="37.5" height="37.5"/><path d="M801.94,1275l-0,37.5l-37.5,0l-0,-37.5l37.5,0Zm-23.62,18.75l4.87,4.869l4.869,-4.869l-4.869,-4.869l-4.87,4.869Z"/><rect x="764.44" y="1420.83" width="37.5" height="37.5"/><path d="M801.94,1420.83l-0,37.5l-37.5,0l-0,-37.5l37.5,0Zm-23.62,18.75l4.87,4.87l4.869,-4.87l-4.869,-4.869l-4.87,4.869Z"/><rect x="764.44" y="1566.67" width="37.5" height="37.5"/><path d="M801.94,1566.67l-0,37.5l-37.5,-0l-0,-37.5l37.5,-0Zm-23.62,18.75l4.87,4.869l4.869,-4.869l-4.869,-4.87l-4.87,4.87Z"/><rect x="764.44" y="1712.5" width="37.5" height="37.5"/><path d="M801.94,1712.5l-0,37.5l-37.5,0l-0,-37.5l37.5,0Zm-23.62,18.75l4.87,4.869l4.869,-4.869l-4.869,-4.869l-4.87,4.869Z"/><rect x="764.44" y="1858.33" width="37.5" height="37.5"/><path d="M801.94,1858.33l-0,37.5l-37.5,0l-0,-37.5l37.5,0Zm-23.62,18.75l4.87,4.87l4.869,-4.87l-4.869,-4.869l-4.87,4.869Z"/><rect x="229.167" y="2041.67" width="804.167" height="37.5" style="fill:#00b;"/><rect x="229.167" y="2041.67" width="804.167" height="37.5"/><path d="M708.333,2041.67l0,-1279.17" style="fill:#00b;fill-opacity:0;stroke:#000;stroke-width:42.37px;"/><rect x="920.833" y="358.333" width="37.5" height="37.5"/><path d="M958.333,358.333l0,37.5l-37.5,0l0,-37.5l37.5,0Zm-23.619,18.75l4.869,4.87l4.87,-4.87l-4.87,-4.869l-4.869,4.869Z"/><path d="M1012.5,1791.67l-83.333,-0" style="fill:none;stroke:#000;stroke-width:42.37px;stroke-linejoin:miter;"/><path d="M250,2060.42l0,-577.084" style="fill:none;stroke:#000;stroke-width:42.37px;stroke-linejoin:miter;"/><path d="M329.167,1756.25l-0,-172.917" style="fill:none;stroke:#000;stroke-width:42.37px;stroke-linejoin:miter;"/><path d="M554.167,1756.25l-0,-172.917" style="fill:none;stroke:#000;stroke-width:42.37px;stroke-linejoin:miter;"/><path d="M516.667,1539.58l-0,-52.083" style="fill:none;stroke:#000;stroke-width:42.37px;stroke-linejoin:miter;"/><path d="M325,1302.08l0,-6.25" style="fill:none;stroke:#000;stroke-width:42.37px;stroke-linejoin:miter;"/><path d="M287.5,1256.25l0,-110.417" style="fill:none;stroke:#000;stroke-width:42.37px;stroke-linejoin:miter;"/><path d="M245.833,1222.92l0,-43.75" style="fill:none;stroke:#000;stroke-width:42.37px;stroke-linejoin:miter;"/><path d="M329.167,1143.75l-0,-52.083" style="fill:none;stroke:#000;stroke-width:42.37px;stroke-linejoin:miter;"/><path d="M362.5,1068.75l0,-10.417" style="fill:none;stroke:#000;stroke-width:42.37px;stroke-linejoin:miter;"/><path d="M362.5,1339.58l0,-2.083" style="fill:none;stroke:#000;stroke-width:42.37px;stroke-linejoin:miter;"/><path d="M441.667,1410.42l-0,-2.084" style="fill:none;stroke:#000;stroke-width:42.37px;stroke-linejoin:miter;"/><path d="M479.167,1452.08l-0,-6.25" style="fill:none;stroke:#000;stroke-width:42.37px;stroke-linejoin:miter;"/><path d="M595.833,425l0,-158.333l150,-0l0,158.333" style="fill:#00b;fill-opacity:0;stroke:#000;stroke-width:42.37px;stroke-linejoin:bevel;"/><path d="M862.5,425l0,-158.333l150,-0l0,158.333" style="fill:#00b;fill-opacity:0;stroke:#000;stroke-width:42.37px;stroke-linejoin:bevel;"/></g></svg>