<?xml version="1.0" encoding="UTF-8" standalone="no"?><!DOCTYPE svg PUBLIC "-//W3C//DTD SVG 1.1//EN" "http://www.w3.org/Graphics/SVG/1.1/DTD/svg11.dtd"><svg width="100%" height="100%" viewBox="0 0 1925 2600" version="1.1" xmlns="http://www.w3.org/2000/svg" xmlns:xlink="http://www.w3.org/1999/xlink" xml:space="preserve" xmlns:serif="http://www.serif.com/" style="fill-rule:evenodd;clip-rule:evenodd;stroke-linecap:square;stroke-linejoin:round;stroke-miterlimit:1.5;"><g id="scientist-bl"><path d="M1068.61,454.167l108.334,-0" style="fill:none;stroke:#000;stroke-width:42.37px;"/><path d="M814.44,454.167l41.666,-0" style="fill:none;stroke:#000;stroke-width:42.37px;"/><path d="M872.773,533.333l175,0" style="fill:none;stroke:#000;stroke-width:42.37px;"/><path d="M893.606,570.833l229.167,0" style="fill:none;stroke:#000;stroke-width:42.37px;"/><path d="M972.773,604.167l150,-0" style="fill:none;stroke:#000;stroke-width:42.37px;"/><path d="M1010.27,762.5l204.167,0" style="fill:none;stroke:#000;stroke-width:42.37px;"/><path d="M1489.44,1525l50,0" style="fill:none;stroke:#000;stroke-width:42.37px;"/><path d="M1239.44,1562.5l225,0" style="fill:none;stroke:#000;stroke-width:42.37px;"/><path d="M1276.94,1795.83l150,0" style="fill:none;stroke:#000;stroke-width:42.37px;"/><path d="M1372.77,762.5l95.833,0" style="fill:none;stroke:#000;stroke-width:42.37px;"/><path d="M1472.77,800l37.5,0" style="fill:none;stroke:#000;stroke-width:42.37px;"/><path d="M1543.61,837.5l12.5,0" style="fill:none;stroke:#000;stroke-width:42.37px;"/><path d="M1581.11,875l0,0" style="fill:none;stroke:#000;stroke-width:42.37px;"/><path d="M935.273,722.917l37.5,-0" style="fill:none;stroke:#000;stroke-width:42.37px;"/><path d="M329.019,1366.67l41.667,-0" style="fill:none;stroke:#000;stroke-width:42.37px;"/><path d="M181.106,1325l110.413,0" style="fill:none;stroke:#000;stroke-width:42.37px;"/><path d="M218.606,1208.33l193.746,0" style="fill:none;stroke:#000;stroke-width:42.37px;"/><path d="M329.019,1287.5l137.5,0" style="fill:none;stroke:#000;stroke-width:42.37px;"/><path d="M774.86,1143.75l37.5,0" style="fill:none;stroke:#000;stroke-width:42.37px;"/><path d="M149.473,2016.67l300,-0" style="fill:none;stroke:#000;stroke-width:42.37px;"/><path d="M486.973,1975l37.5,0" style="fill:none;stroke:#000;stroke-width:42.37px;"/><path d="M520.306,1937.5l4.167,0" style="fill:none;stroke:#000;stroke-width:42.37px;"/><path d="M474.473,1991.67l4.167,-0" style="fill:none;stroke:#000;stroke-width:42.37px;"/><path d="M735.277,1181.25l4.167,0" style="fill:none;stroke:#000;stroke-width:42.37px;"/><path d="M445.686,1328.12l-0,0" style="fill:none;stroke:#000;stroke-width:42.37px;"/><path d="M1314.44,875l37.5,0" style="fill:none;stroke:#000;stroke-width:42.37px;"/><path d="M1272.77,912.5l0,0" style="fill:none;stroke:#000;stroke-width:42.37px;"/><path d="M860.273,766.667l25,-0" style="fill:none;stroke:#000;stroke-width:42.37px;"/><path d="M739.44,879.167l-0,-0" style="fill:none;stroke:#000;stroke-width:42.37px;"/><path d="M706.106,916.667l0,-0" style="fill:none;stroke:#000;stroke-width:42.37px;"/><path d="M781.106,837.5l0,0" style="fill:none;stroke:#000;stroke-width:42.37px;"/><path d="M781.106,837.5l0,0" style="fill:none;stroke:#000;stroke-width:42.37px;"/><path d="M818.606,800l0,0" style="fill:none;stroke:#000;stroke-width:42.37px;"/><path d="M818.606,800l0,0" style="fill:none;stroke:#000;stroke-width:42.37px;"/><path d="M972.773,337.5l41.667,0" style="fill:none;stroke:#000;stroke-width:42.37px;"/><path d="M1231.11,337.5l316.667,0" style="fill:none;stroke:#000;stroke-width:42.37px;"/><path d="M1368.61,295.833l179.167,0" style="fill:none;stroke:#000;stroke-width:42.37px;"/><path d="M1368.61,254.167l179.167,-0" style="fill:none;stroke:#000;stroke-width:42.37px;"/><path d="M1393.61,225l112.5,0" style="fill:none;stroke:#000;stroke-width:42.37px;"/><path d="M1426.94,187.5l41.666,0" style="fill:none;stroke:#000;stroke-width:42.37px;"/><path d="M1468.61,379.167l79.167,-0" style="fill:none;stroke:#000;stroke-width:42.37px;"/><path d="M1468.61,420.833l79.167,0" style="fill:none;stroke:#000;stroke-width:42.37px;"/><path d="M1468.61,462.5l37.5,0" style="fill:none;stroke:#000;stroke-width:42.37px;"/><path d="M1431.11,495.833l37.5,0" style="fill:none;stroke:#000;stroke-width:42.37px;"/><path d="M972.773,70.833l341.667,0" style="fill:none;stroke:#000;stroke-width:42.37px;"/><path d="M1347.77,108.333l8.333,0" style="fill:none;stroke:#000;stroke-width:42.37px;"/><path d="M935.273,108.333l33.333,0" style="fill:none;stroke:#000;stroke-width:42.37px;"/><path d="M893.606,145.833l33.334,0" style="fill:none;stroke:#000;stroke-width:42.37px;"/><path d="M860.273,187.5l33.333,-0" style="fill:none;stroke:#000;stroke-width:42.37px;"/><path d="M860.273,191.667l0,33.333" style="fill:none;stroke:#000;stroke-width:42.37px;"/><path d="M1356.11,266.667l0,112.5" style="fill:none;stroke:#000;stroke-width:42.37px;"/><path d="M860.273,466.667l0,141.666" style="fill:none;stroke:#000;stroke-width:42.37px;"/><path d="M893.606,541.667l0,104.166" style="fill:none;stroke:#000;stroke-width:42.37px;"/><path d="M935.273,683.333l0,75" style="fill:none;stroke:#000;stroke-width:42.37px;"/><path d="M1060.27,766.667l0,20.833" style="fill:none;stroke:#000;stroke-width:42.37px;"/><path d="M893.606,762.5l0,112.5" style="fill:none;stroke:#000;stroke-width:42.37px;"/><path d="M1389.44,495.833l-0,112.5" style="fill:none;stroke:#000;stroke-width:42.37px;"/><path d="M1356.11,612.5l0,29.167" style="fill:none;stroke:#000;stroke-width:42.37px;"/><path d="M1314.44,645.833l-0,79.167" style="fill:none;stroke:#000;stroke-width:42.37px;"/><path d="M1276.94,685.417l-0,39.583" style="fill:none;stroke:#000;stroke-width:42.37px;"/><path d="M1239.44,722.917l-0,110.416" style="fill:none;stroke:#000;stroke-width:42.37px;"/><path d="M1198.33,833.336l-0.801,79.164" style="fill:none;stroke:#000;stroke-width:42.37px;"/><path d="M1161.69,800l-0,-0" style="fill:none;stroke:#000;stroke-width:42.37px;"/><path d="M1315.24,954.169l-0.38,37.498" style="fill:none;stroke:#000;stroke-width:42.37px;"/><path d="M1277.74,991.667l-0.38,37.497" style="fill:none;stroke:#000;stroke-width:42.37px;"/><path d="M1244.41,1050l-0.127,12.497" style="fill:none;stroke:#000;stroke-width:42.37px;"/><path d="M1202.74,1075l-0.337,33.331" style="fill:none;stroke:#000;stroke-width:42.37px;"/><path d="M1048.57,1145.84l-0.337,33.331" style="fill:none;stroke:#000;stroke-width:42.37px;"/><path d="M969.408,1045.84l-0.169,16.664" style="fill:none;stroke:#000;stroke-width:42.37px;"/><path d="M931.908,987.503l-0.38,37.497" style="fill:none;stroke:#000;stroke-width:42.37px;"/><path d="M664.651,1011.46l-0.127,12.498" style="fill:none;stroke:#000;stroke-width:42.37px;"/><path d="M685.526,957.292l-0.169,16.664" style="fill:none;stroke:#000;stroke-width:42.37px;"/><path d="M370.686,1242.71l-0.38,37.498" style="fill:none;stroke:#000;stroke-width:42.37px;"/><path d="M372.246,1367.71l-1.94,191.664" style="fill:none;stroke:#000;stroke-width:42.37px;"/><path d="M450.274,1480.21l-0.801,79.166" style="fill:none;stroke:#000;stroke-width:42.37px;"/><path d="M412.373,1519.79l-0.4,39.583" style="fill:none;stroke:#000;stroke-width:42.37px;"/><path d="M257.161,1211.46l-3.521,347.916" style="fill:none;stroke:#000;stroke-width:42.37px;"/><path d="M181.106,1328.12l-1.497,147.917" style="fill:none;stroke:#000;stroke-width:42.37px;"/><path d="M214.44,1480.21l-0.801,79.166" style="fill:none;stroke:#000;stroke-width:42.37px;"/><path d="M189.44,1567.71l-0.295,29.166" style="fill:none;stroke:#000;stroke-width:42.37px;"/><path d="M106.106,1638.54l-0.674,66.667" style="fill:none;stroke:#000;stroke-width:42.37px;"/><path d="M64.44,1709.37l-1.94,191.667" style="fill:none;stroke:#000;stroke-width:42.37px;"/><path d="M101.94,1937.5l-0.38,37.5" style="fill:none;stroke:#000;stroke-width:42.37px;"/><path d="M139.44,1975l-0.169,16.667" style="fill:none;stroke:#000;stroke-width:42.37px;"/><path d="M564.44,1709.37l-1.94,191.667" style="fill:none;stroke:#000;stroke-width:42.37px;"/><path d="M526.94,1613.54l-0.928,91.667" style="fill:none;stroke:#000;stroke-width:42.37px;"/><path d="M493.606,1596.87l-0.379,37.5" style="fill:none;stroke:#000;stroke-width:42.37px;"/><path d="M443.606,1551.04l-0.379,37.5" style="fill:none;stroke:#000;stroke-width:42.37px;"/><path d="M456.106,1594.79l-0.021,2.083" style="fill:none;stroke:#000;stroke-width:42.37px;"/><path d="M139.44,1621.87l-0.127,12.5" style="fill:none;stroke:#000;stroke-width:42.37px;"/><path d="M156.106,1590.62l-0.126,12.5" style="fill:none;stroke:#000;stroke-width:42.37px;"/><path d="M931.718,879.169l-0.338,33.331" style="fill:none;stroke:#000;stroke-width:42.37px;"/><path d="M1010.88,779.169l-1.391,137.498" style="fill:none;stroke:#000;stroke-width:42.37px;"/><path d="M1048.38,916.667l-1.539,152.083" style="fill:none;stroke:#000;stroke-width:42.37px;"/><path d="M1160.88,950l-0.358,35.417" style="fill:none;stroke:#000;stroke-width:42.37px;"/><path d="M1124.9,800l-3.099,306.25" style="fill:none;stroke:#000;stroke-width:42.37px;"/><path d="M890.051,950.003l-0.042,4.164" style="fill:none;stroke:#000;stroke-width:42.37px;"/><path d="M1006.91,1100l-0.085,8.33" style="fill:none;stroke:#000;stroke-width:42.37px;"/><path d="M1127.74,1179.17l-0.042,4.164" style="fill:none;stroke:#000;stroke-width:42.37px;"/><path d="M1161.07,1145.83l0.042,-4.169" style="fill:none;stroke:#000;stroke-width:42.37px;"/><path d="M1351.94,722.917l-0,152.083" style="fill:none;stroke:#000;stroke-width:42.37px;"/><path d="M1618.61,910.417l0,43.75" style="fill:none;stroke:#000;stroke-width:42.37px;"/><path d="M1697.77,1022.92l0,39.583" style="fill:none;stroke:#000;stroke-width:42.37px;"/><path d="M1735.27,1102.08l0,39.584" style="fill:none;stroke:#000;stroke-width:42.37px;"/><path d="M1772.77,1185.42l0,106.25" style="fill:none;stroke:#000;stroke-width:42.37px;"/><path d="M1735.27,1306.25l0,22.917" style="fill:none;stroke:#000;stroke-width:42.37px;"/><path d="M1697.77,1331.25l0,39.583" style="fill:none;stroke:#000;stroke-width:42.37px;"/><path d="M1618.61,1410.42l0,31.25" style="fill:none;stroke:#000;stroke-width:42.37px;"/><path d="M1581.11,1447.92l0,35.416" style="fill:none;stroke:#000;stroke-width:42.37px;"/><path d="M1468.61,1489.58l0,35.417" style="fill:none;stroke:#000;stroke-width:42.37px;"/><path d="M1431.11,1447.92l0,35.416" style="fill:none;stroke:#000;stroke-width:42.37px;"/><path d="M1393.61,1372.92l0,75" style="fill:none;stroke:#000;stroke-width:42.37px;"/><path d="M1660.27,1372.92l0,6.25" style="fill:none;stroke:#000;stroke-width:42.37px;"/><path d="M643.606,1322.92l0,10.416" style="fill:none;stroke:#000;stroke-width:42.37px;"/><path d="M685.273,1268.75l0,14.583" style="fill:none;stroke:#000;stroke-width:42.37px;"/><path d="M722.773,1218.75l0,10.417" style="fill:none;stroke:#000;stroke-width:42.37px;"/><path d="M564.44,1410.42l-0,6.25" style="fill:none;stroke:#000;stroke-width:42.37px;"/><path d="M493.606,1453.12l0,5.208" style="fill:none;stroke:#000;stroke-width:42.37px;"/><path d="M606.106,1372.92l0,6.25" style="fill:none;stroke:#000;stroke-width:42.37px;"/><path d="M568.606,1164.58l0,10.417" style="fill:none;stroke:#000;stroke-width:42.37px;"/><path d="M610.273,1110.42l0,14.583" style="fill:none;stroke:#000;stroke-width:42.37px;"/><path d="M647.773,1060.42l0,10.416" style="fill:none;stroke:#000;stroke-width:42.37px;"/><path d="M489.44,1260.42l-0,18.75" style="fill:none;stroke:#000;stroke-width:42.37px;"/><path d="M531.106,1453.12l0,5.208" style="fill:none;stroke:#000;stroke-width:42.37px;"/><path d="M472.773,1364.58l0,6.25" style="fill:none;stroke:#000;stroke-width:42.37px;"/><path d="M501.94,1410.42l-0,6.25" style="fill:none;stroke:#000;stroke-width:42.37px;"/><path d="M531.106,1214.58l0,6.25" style="fill:none;stroke:#000;stroke-width:42.37px;"/><path d="M1656.11,993.75l0,2.083" style="fill:none;stroke:#000;stroke-width:42.37px;"/><path d="M1389.44,145.833l-0,0" style="fill:none;stroke:#000;stroke-width:42.37px;"/><path d="M889.44,425l25,0" style="fill:none;stroke:#000;stroke-width:42.37px;"/><path d="M1406.11,2070.83l0,466.667l-70.833,0l0,-37.5l-41.667,0l0,37.5l-266.666,0l-0,-37.5l-41.667,0l0,37.5l-187.5,0l0,-75l79.167,0l-0,-37.5l37.5,0l-0,-354.167l187.5,0l-0,395.834l79.166,-0l0,-41.667l37.5,0l0,-354.167l187.5,0Z"/><path d="M1406.11,2070.83l0,466.667l-70.833,0l0,-37.5l-41.667,0l0,37.5l-266.666,0l-0,-37.5l-41.667,0l0,37.5l-187.5,0l0,-75l79.167,0l-0,-37.5l37.5,0l-0,-354.167l187.5,0l-0,395.834l79.166,-0l0,-41.667l37.5,0l0,-354.167l187.5,0Zm-182.63,424.298l27.761,-0l-0,-27.762l-27.761,0l-0,27.762Zm-304.167,-0l23.595,-0l-0,-27.762l-23.595,0l0,27.762Zm37.5,-37.5l102.761,-0l0,-344.428l-102.761,-0l0,344.428Zm304.167,-0l102.761,-0l-0,-344.428l-102.761,-0l-0,344.428Z"/><path d="M814.44,1100l-0,458.333l79.166,0l0,200" style="fill:#00b;fill-opacity:0;stroke:#000;stroke-width:42.37px;stroke-linejoin:miter;"/><path d="M781.106,1445.83l0,606.25" style="fill:none;stroke:#000;stroke-width:42.37px;stroke-linejoin:miter;"/><path d="M504.019,1731.25l-379.167,-0l0,150l38.313,-0l-0,37.5l38.036,-0l0,37.5l227.773,-0l-0,-37.5l36.985,-0l0,-37.5l38.06,-0l0,-150Z"/><path d="M504.019,1731.25l0,150l-38.06,-0l0,37.5l-36.985,-0l-0,37.5l-227.773,-0l0,-37.5l-38.036,-0l-0,-37.5l-38.313,-0l0,-150l379.167,-0Zm-117.138,182.631c2.222,-19.418 17.571,-34.847 36.951,-37.192c2.124,-19.84 17.943,-35.584 37.818,-37.592l-0,-65.478l-294.428,0l-0,65.453c19.955,1.896 35.876,17.632 38.057,37.502c19.881,1.899 35.753,17.535 38.015,37.307l143.587,-0Z"/><rect x="1106.11" y="358.333" width="37.5" height="37.5"/><path d="M1106.11,358.333l37.5,0l0,37.5l-37.5,0l0,-37.5Zm13.881,18.75l4.869,4.87l4.87,-4.87l-4.87,-4.869l-4.869,4.869Z"/><rect x="1141.67" y="1275" width="37.5" height="37.5"/><path d="M1141.67,1275l37.5,0l-0,37.5l-37.5,0l-0,-37.5Zm13.88,18.75l4.87,4.869l4.869,-4.869l-4.869,-4.869l-4.87,4.869Z"/><rect x="1141.67" y="1420.83" width="37.5" height="37.5"/><path d="M1141.67,1420.83l37.5,0l-0,37.5l-37.5,0l-0,-37.5Zm13.88,18.75l4.87,4.87l4.869,-4.87l-4.869,-4.869l-4.87,4.869Z"/><rect x="1141.67" y="1566.67" width="37.5" height="37.5"/><path d="M1141.67,1566.67l37.5,-0l-0,37.5l-37.5,-0l-0,-37.5Zm13.88,18.75l4.87,4.869l4.869,-4.869l-4.869,-4.87l-4.87,4.87Z"/><rect x="1141.67" y="1712.5" width="37.5" height="37.5"/><path d="M1141.67,1712.5l37.5,0l-0,37.5l-37.5,0l-0,-37.5Zm13.88,18.75l4.87,4.869l4.869,-4.869l-4.869,-4.869l-4.87,4.869Z"/><rect x="1141.67" y="1858.33" width="37.5" height="37.5"/><path d="M1141.67,1858.33l37.5,0l-0,37.5l-37.5,0l-0,-37.5Zm13.88,18.75l4.87,4.87l4.869,-4.87l-4.869,-4.869l-4.87,4.869Z"/><rect x="760.273" y="2041.67" width="804.167" height="37.5" style="fill:#00b;"/><rect x="760.273" y="2041.67" width="804.167" height="37.5"/><path d="M1085.27,2041.67l0,-1279.17" style="fill:#00b;fill-opacity:0;stroke:#000;stroke-width:42.37px;"/><rect x="835.273" y="358.333" width="37.5" height="37.5"/><path d="M835.273,358.333l37.5,0l0,37.5l-37.5,0l0,-37.5Zm13.881,18.75l4.869,4.87l4.87,-4.87l-4.87,-4.869l-4.869,4.869Z"/><path d="M781.106,1791.67l83.334,-0" style="fill:none;stroke:#000;stroke-width:42.37px;stroke-linejoin:miter;"/><path d="M1543.61,2060.42l0,-577.084" style="fill:none;stroke:#000;stroke-width:42.37px;stroke-linejoin:miter;"/><path d="M1464.44,1756.25l-0,-172.917" style="fill:none;stroke:#000;stroke-width:42.37px;stroke-linejoin:miter;"/><path d="M1239.44,1756.25l-0,-172.917" style="fill:none;stroke:#000;stroke-width:42.37px;stroke-linejoin:miter;"/><path d="M1276.94,1539.58l-0,-52.083" style="fill:none;stroke:#000;stroke-width:42.37px;stroke-linejoin:miter;"/><path d="M1468.61,1302.08l0,-6.25" style="fill:none;stroke:#000;stroke-width:42.37px;stroke-linejoin:miter;"/><path d="M1506.11,1256.25l0,-110.417" style="fill:none;stroke:#000;stroke-width:42.37px;stroke-linejoin:miter;"/><path d="M1547.77,1222.92l0,-43.75" style="fill:none;stroke:#000;stroke-width:42.37px;stroke-linejoin:miter;"/><path d="M1464.44,1143.75l-0,-52.083" style="fill:none;stroke:#000;stroke-width:42.37px;stroke-linejoin:miter;"/><path d="M1431.11,1068.75l0,-10.417" style="fill:none;stroke:#000;stroke-width:42.37px;stroke-linejoin:miter;"/><path d="M1431.11,1339.58l0,-2.083" style="fill:none;stroke:#000;stroke-width:42.37px;stroke-linejoin:miter;"/><path d="M1351.94,1410.42l-0,-2.084" style="fill:none;stroke:#000;stroke-width:42.37px;stroke-linejoin:miter;"/><path d="M1314.44,1452.08l-0,-6.25" style="fill:none;stroke:#000;stroke-width:42.37px;stroke-linejoin:miter;"/><path d="M1197.77,425l0,-158.333l-150,-0l0,158.333" style="fill:#00b;fill-opacity:0;stroke:#000;stroke-width:42.37px;stroke-linejoin:bevel;"/><path d="M931.106,425l0,-158.333l-150,-0l0,158.333" style="fill:#00b;fill-opacity:0;stroke:#000;stroke-width:42.37px;stroke-linejoin:bevel;"/></g></svg>