<?xml version="1.0" encoding="UTF-8" standalone="no"?><!DOCTYPE svg PUBLIC "-//W3C//DTD SVG 1.1//EN" "http://www.w3.org/Graphics/SVG/1.1/DTD/svg11.dtd"><svg width="100%" height="100%" viewBox="0 0 1260 1616" version="1.1" xmlns="http://www.w3.org/2000/svg" xmlns:xlink="http://www.w3.org/1999/xlink" xml:space="preserve" xmlns:serif="http://www.serif.com/" style="fill-rule:evenodd;clip-rule:evenodd;stroke-linecap:round;stroke-linejoin:round;stroke-miterlimit:1.5;"><g><path d="M977.903,55.757l-6.236,227.956l244.692,6.567" style="fill:#0023a6;fill-opacity:0;stroke:#000;stroke-width:83.33px;"/><path d="M41.949,1572.13l1173.16,-0.043l0.68,-1282.94l-233.368,-246.961l-939.211,2.07l-1.266,1527.87Z" style="fill:#0023a6;fill-opacity:0;stroke:#000;stroke-width:83.33px;"/><path d="M205.871,1111.34l646.484,2.608" style="fill:none;stroke:#000;stroke-width:83.33px;"/><path d="M215.49,980.683l838.621,-2.777" style="fill:none;stroke:#000;stroke-width:83.33px;"/><path d="M972.724,1111.86l82.505,1.247" style="fill:none;stroke:#000;stroke-width:83.33px;"/><path d="M218.327,842.098l834.666,-2.217" style="fill:none;stroke:#000;stroke-width:83.33px;"/><path d="M196.805,1381.72l573.586,-2.019" style="fill:none;stroke:#000;stroke-width:83.33px;"/><path d="M204.164,1246.53l845.403,-0.505" style="fill:none;stroke:#000;stroke-width:83.33px;"/><path d="M890.194,1379.3l163.316,1.927" style="fill:none;stroke:#000;stroke-width:83.33px;"/><g><path d="M662.54,419.603l193.833,-7.646" style="fill:none;stroke:#000;stroke-width:83.33px;"/><path d="M755.227,316.782l0.547,204.773" style="fill:none;stroke:#000;stroke-width:83.33px;"/></g><g><path d="M428.033,280.684l160.458,363.951" style="fill:none;stroke:#000;stroke-width:83.33px;"/><path d="M428.033,280.684l-154.591,377.649" style="fill:none;stroke:#000;stroke-width:83.33px;"/><path d="M325.457,531.265l209.358,5.818" style="fill:none;stroke:#000;stroke-width:83.33px;"/></g></g></svg>